<svg width="17" height="16" viewBox="0 0 17 16" fill="none" xmlns="http://www.w3.org/2000/svg">
<path d="M4.375 0C3.61589 0 3 0.671875 3 1.5V14.5C3 15.3281 3.61589 16 4.375 16H7.125V13.5C7.125 12.6719 7.74089 12 8.5 12C9.25911 12 9.875 12.6719 9.875 13.5V16H12.625C13.3841 16 14 15.3281 14 14.5V1.5C14 0.671875 13.3841 0 12.625 0H4.375ZM4.83333 7.5C4.83333 7.225 5.03958 7 5.29167 7H6.20833C6.46042 7 6.66667 7.225 6.66667 7.5V8.5C6.66667 8.775 6.46042 9 6.20833 9H5.29167C5.03958 9 4.83333 8.775 4.83333 8.5V7.5ZM8.04167 7H8.95833C9.21042 7 9.41667 7.225 9.41667 7.5V8.5C9.41667 8.775 9.21042 9 8.95833 9H8.04167C7.78958 9 7.58333 8.775 7.58333 8.5V7.5C7.58333 7.225 7.78958 7 8.04167 7ZM10.3333 7.5C10.3333 7.225 10.5396 7 10.7917 7H11.7083C11.9604 7 12.1667 7.225 12.1667 7.5V8.5C12.1667 8.775 11.9604 9 11.7083 9H10.7917C10.5396 9 10.3333 8.775 10.3333 8.5V7.5ZM5.29167 3H6.20833C6.46042 3 6.66667 3.225 6.66667 3.5V4.5C6.66667 4.775 6.46042 5 6.20833 5H5.29167C5.03958 5 4.83333 4.775 4.83333 4.5V3.5C4.83333 3.225 5.03958 3 5.29167 3ZM7.58333 3.5C7.58333 3.225 7.78958 3 8.04167 3H8.95833C9.21042 3 9.41667 3.225 9.41667 3.5V4.5C9.41667 4.775 9.21042 5 8.95833 5H8.04167C7.78958 5 7.58333 4.775 7.58333 4.5V3.5ZM10.7917 3H11.7083C11.9604 3 12.1667 3.225 12.1667 3.5V4.5C12.1667 4.775 11.9604 5 11.7083 5H10.7917C10.5396 5 10.3333 4.775 10.3333 4.5V3.5C10.3333 3.225 10.5396 3 10.7917 3Z" fill="#FDB218"/>
</svg>
