<svg width="17" height="16" viewBox="0 0 17 16" fill="none" xmlns="http://www.w3.org/2000/svg">
<path d="M2.66667 2.625C2.66667 1.72871 3.46389 1 4.44444 1H11.5556C12.5361 1 13.3333 1.72871 13.3333 2.625V12.375H15.1111C15.6028 12.375 16 12.7381 16 13.1875C16 13.6369 15.6028 14 15.1111 14H12H4H0.888889C0.397222 14 0 13.6369 0 13.1875C0 12.7381 0.397222 12.375 0.888889 12.375H2.66667V2.625ZM10.6667 8.3125C10.9024 8.3125 11.1285 8.2269 11.2952 8.07452C11.4619 7.92215 11.5556 7.71549 11.5556 7.5C11.5556 7.28451 11.4619 7.07785 11.2952 6.92548C11.1285 6.7731 10.9024 6.6875 10.6667 6.6875C10.4309 6.6875 10.2048 6.7731 10.0381 6.92548C9.87143 7.07785 9.77778 7.28451 9.77778 7.5C9.77778 7.71549 9.87143 7.92215 10.0381 8.07452C10.2048 8.2269 10.4309 8.3125 10.6667 8.3125Z" fill="#FDB218"/>
</svg>
