<svg width="240" height="86" viewBox="0 0 240 86" fill="none" xmlns="http://www.w3.org/2000/svg">
<path d="M0 60.2C134.829 71.3897 191.666 62.0114 240 0C239.379 77.4505 174.344 82.1671 0 60.2Z" fill="url(#paint0_linear_549_9)"/>
<path d="M20.5715 60.2C6.65145 60.2 2.40002 49.3984 2.40002 42.1056V24.2864H13.7829V41.8992C13.7829 46.3024 16.0457 50.224 20.5715 50.224C26.6057 50.224 27.36 47.2656 27.36 41.8992V24.2864H38.7429V59.856H31.4743L30.24 57.792C27.5657 59.3056 24.2743 60.2 20.5715 60.2ZM58.6002 60.2V24.9744H43.5831V14.9984H84.1773V24.9744H69.9831V60.2H58.6002ZM89.0518 24.5616H100.435V27.3136C104.48 24.8368 108.869 23.8736 115.52 23.8736V33.8496C107.018 33.8496 100.435 36.9456 100.435 40.936V60.2H89.0518V24.5616ZM118.315 42.5872C118.315 34.8128 122.978 24.2864 137.172 24.2864C139.778 24.2864 142.315 24.9056 144.578 26.0064V24.5616H155.961V60.2H144.578V59.2368C142.315 60.2688 139.778 60.888 137.172 60.888C122.978 60.888 118.315 50.3616 118.315 42.5872ZM129.698 42.5872C129.698 47.128 132.235 50.912 137.172 50.912C142.109 50.912 144.578 47.0592 144.578 42.5872C144.578 38.1152 142.109 34.2624 137.172 34.2624C132.235 34.2624 129.698 38.0464 129.698 42.5872ZM162.177 42.5872C162.177 34.8816 166.703 24.2864 180.965 24.2864C187.068 24.2864 191.731 26.2816 195.914 30.7536L188.097 38.3216C185.765 35.8448 184.6 34.2624 180.965 34.2624C176.028 34.2624 173.56 38.1152 173.56 42.5872C173.56 47.0592 176.028 50.912 180.965 50.912C184.874 50.912 186.588 48.4352 188.645 45.6144L197.011 53.0448C192.897 58.5488 187.891 60.888 180.965 60.888C166.703 60.888 162.177 50.2928 162.177 42.5872ZM218.135 24.2864C232.261 24.2864 237.13 34.6064 237.13 46.9216H211.758C212.924 49.3984 215.05 50.912 218.273 50.912C220.604 50.912 223.004 49.6048 224.307 47.8848L233.495 54.1456C230.204 58.4112 224.65 60.7504 217.998 60.7504C204.284 60.7504 199.141 50.0864 199.141 42.5872C199.141 34.8816 204.078 24.2864 218.135 24.2864ZM218.341 34.2624C215.735 34.2624 213.747 35.2944 212.513 36.9456H224.101C222.798 35.2944 220.878 34.2624 218.341 34.2624Z" fill="#151515"/>
<defs>
<linearGradient id="paint0_linear_549_9" x1="240" y1="2.15292e-05" x2="-0.129001" y2="71.0515" gradientUnits="userSpaceOnUse">
<stop stop-color="#FDB218"/>
<stop offset="0.635" stop-color="#1C1654"/>
</linearGradient>
</defs>
</svg>
