<svg width="345" height="218" viewBox="0 0 345 218" fill="none" xmlns="http://www.w3.org/2000/svg">
<g clip-path="url(#clip0_208_522)">
<path d="M251.735 53.0902C251.735 74.0054 219.101 135.686 200.39 169.332C199.121 171.615 197.266 173.517 195.017 174.841C192.768 176.165 190.207 176.863 187.599 176.863C184.99 176.863 182.429 176.165 180.181 174.841C177.932 173.517 176.077 171.615 174.808 169.332C156.097 135.686 123.462 74.0054 123.462 53.0902C123.462 23.7693 152.177 0 187.599 0C223.02 0 251.735 23.7693 251.735 53.0902Z" fill="url(#paint0_linear_208_522)"/>
<path d="M187.9 87.4781C207.191 87.4781 222.829 71.812 222.829 52.4869C222.829 33.1617 207.191 17.4956 187.9 17.4956C168.609 17.4956 152.971 33.1617 152.971 52.4869C152.971 71.812 168.609 87.4781 187.9 87.4781Z" fill="white"/>
<path d="M42.1444 84.1475C53.6987 84.1475 63.0653 74.7642 63.0653 63.1892C63.0653 51.6142 53.6987 42.2308 42.1444 42.2308C30.5901 42.2308 21.2235 51.6142 21.2235 63.1892C21.2235 74.7642 30.5901 84.1475 42.1444 84.1475Z" fill="#FF6584"/>
<path d="M187.599 218C215.568 218 238.241 216.247 238.241 214.084C238.241 211.921 215.568 210.167 187.599 210.167C159.63 210.167 136.957 211.921 136.957 214.084C136.957 216.247 159.63 218 187.599 218Z" fill="url(#paint1_linear_208_522)"/>
<path opacity="0.4" d="M37.8847 81.8272C38.9495 75.254 34.4935 69.0607 27.9321 67.994C21.3707 66.9273 15.1884 71.3912 14.1236 77.9644C13.0589 84.5376 17.5148 90.7309 24.0762 91.7976C30.6376 92.8643 36.8199 88.4004 37.8847 81.8272Z" fill="url(#paint2_linear_208_522)"/>
<path d="M307.596 142.095C212.813 106.5 97.2105 141.202 30.4664 212.186C30.087 212.584 29.7076 212.988 29.3403 213.392H28.3225C28.6718 212.988 29.0332 212.584 29.3885 212.186C97.5176 135.802 211.584 105.36 307.596 142.095Z" fill="#3F3D56"/>
<path d="M333.498 153.901C325.12 149.425 316.469 145.482 307.596 142.095C316.492 145.426 325.146 149.371 333.498 153.901Z" fill="#3F3D56"/>
<path opacity="0.4" d="M281.623 118.388C288.913 118.388 294.823 112.467 294.823 105.164C294.823 97.8602 288.913 91.9395 281.623 91.9395C274.332 91.9395 268.422 97.8602 268.422 105.164C268.422 112.467 274.332 118.388 281.623 118.388Z" fill="url(#paint3_linear_208_522)"/>
<path d="M283.093 206.883C284.113 210.661 287.607 213.001 287.607 213.001C287.607 213.001 289.447 209.216 288.427 205.438C287.407 201.66 283.913 199.32 283.913 199.32C283.913 199.32 282.072 203.106 283.093 206.883Z" fill="#3F3D56"/>
<path d="M284.592 206.072C287.391 208.801 287.733 212.998 287.733 212.998C287.733 212.998 283.536 212.768 280.737 210.038C277.938 207.309 277.596 203.112 277.596 203.112C277.596 203.112 281.792 203.342 284.592 206.072Z" fill="url(#paint4_linear_208_522)"/>
<path d="M2.02345 154.357V160.185L1.73438 160.499V154.297C1.83073 154.315 1.92711 154.339 2.02345 154.357Z" fill="#3F3D56"/>
<path d="M20.5598 212.183C20.4755 212.322 20.3852 212.461 20.2948 212.599H1.7344V154.647L2.02347 154.357L4.48655 157.162V153.06H12.3154V166.079L20.2226 175.074L20.2948 175.159C20.3912 175.46 20.4815 175.762 20.5718 176.064C20.5725 176.068 20.5746 176.073 20.5779 176.076C21.7637 179.878 22.7368 183.743 23.4926 187.653C25.215 196.877 24.956 205.336 20.5598 212.183Z" fill="#CCCCCC"/>
<path d="M8.25136 186.391H3.26831V190.551H8.25136V186.391Z" fill="#3F3D56"/>
<path d="M8.25136 193.879H3.26831V198.039H8.25136V193.879Z" fill="#3F3D56"/>
<path d="M161.749 178.487L159.258 174.327L182.512 154.359C199.703 146.069 220.426 148.461 242.309 154.359V160.183L220.715 183.479L195.8 188.471L161.749 178.487Z" fill="#3F3D56"/>
<path d="M252.602 166.077C256.731 161.475 257.305 157.1 252.602 153.059H244.773V157.164L242.309 154.359L222.376 174.327L219.054 177.655L214.902 194.295L222.376 212.598H260.579V175.159L252.602 166.077Z" fill="#CCCCCC"/>
<path d="M159.258 174.327H222.376V212.598H159.258C151.621 204.322 155.588 189.237 159.258 174.327Z" fill="#F2F2F2"/>
<path d="M213.656 186.391H200.368V198.039H213.656V186.391Z" fill="#3F3D56"/>
<path d="M194.969 185.975H183.342V212.598H194.969V185.975Z" fill="#CCCCCC"/>
<path d="M170.054 190.135V185.975H165.072V190.135H169.639H170.054Z" fill="#3F3D56"/>
<path d="M169.639 193.462H165.072V197.623H170.054V193.462H169.639Z" fill="#3F3D56"/>
<path d="M178.359 185.975H173.376V190.135H178.359V185.975Z" fill="#3F3D56"/>
<path d="M178.359 193.463H173.376V197.622H178.359V193.463Z" fill="#3F3D56"/>
<path d="M240.232 190.551V186.391H235.249V190.551H239.817H240.232Z" fill="#3F3D56"/>
<path d="M239.817 193.879H235.249V198.039H240.232V193.879H239.817Z" fill="#3F3D56"/>
<path d="M248.537 186.391H243.554V190.551H248.537V186.391Z" fill="#3F3D56"/>
<path d="M248.537 193.879H243.554V198.039H248.537V193.879Z" fill="#3F3D56"/>
<path d="M49.3616 108.6L45.2093 105.271L68.4634 84.4713H127.429V102.775L89.2262 128.568L49.3616 108.6Z" fill="#3F3D56"/>
<path d="M138.18 96.139V84.8869H130.351V87.6427L127.429 84.4712L108.327 105.271L100.853 110.263L89.2634 195.089L106.742 212.598H147.361C153.585 181.234 158.521 149.014 147.361 106.103L138.18 96.139Z" fill="#CCCCCC"/>
<path d="M45.2089 105.271H108.327V212.598H45.2089C38.302 170.903 34.9287 132.236 45.2089 105.271Z" fill="#F2F2F2"/>
<path d="M81.336 186.391H69.7089V212.598H81.336V186.391Z" fill="#CCCCCC"/>
<path d="M57.2513 193.879V189.719H52.2685V193.879H56.8363H57.2513Z" fill="#3F3D56"/>
<path d="M56.8363 197.207H52.2685V201.367H57.2513V197.207H56.8363Z" fill="#3F3D56"/>
<path d="M65.5564 189.719H60.5733V193.878H65.5564V189.719Z" fill="#3F3D56"/>
<path d="M90.8871 197.207H86.3192V201.367H91.302V197.207H90.8871Z" fill="#3F3D56"/>
<path d="M99.6072 189.719H94.6241V193.878H99.6072V189.719Z" fill="#3F3D56"/>
<path d="M99.6072 197.207H94.6241V201.367H99.6072V197.207Z" fill="#3F3D56"/>
<path d="M126.183 110.679V106.519H121.2V110.679H125.768H126.183Z" fill="#3F3D56"/>
<path d="M125.768 114.008H121.2V118.167H126.183V114.008H125.768Z" fill="#3F3D56"/>
<path d="M134.488 106.519H129.505V110.679H134.488V106.519Z" fill="#3F3D56"/>
<path d="M134.488 114.007H129.505V118.167H134.488V114.007Z" fill="#3F3D56"/>
<path d="M126.183 133.976V129.815H121.2V133.976H125.768H126.183Z" fill="#3F3D56"/>
<path d="M125.768 137.303H121.2V141.463H126.183V137.303H125.768Z" fill="#3F3D56"/>
<path d="M134.488 129.815H129.505V133.975H134.488V129.815Z" fill="#3F3D56"/>
<path d="M134.488 137.303H129.505V141.463H134.488V137.303Z" fill="#3F3D56"/>
<path d="M126.183 157.271V153.111H121.2V157.271H125.768H126.183Z" fill="#3F3D56"/>
<path d="M125.768 160.599H121.2V164.759H126.183V160.599H125.768Z" fill="#3F3D56"/>
<path d="M134.488 153.111H129.505V157.271H134.488V153.111Z" fill="#3F3D56"/>
<path d="M134.488 160.599H129.505V164.759H134.488V160.599Z" fill="#3F3D56"/>
<path d="M126.183 180.567V176.407H121.2V180.567H125.768H126.183Z" fill="#3F3D56"/>
<path d="M125.768 183.895H121.2V188.055H126.183V183.895H125.768Z" fill="#3F3D56"/>
<path d="M134.488 176.407H129.505V180.567H134.488V176.407Z" fill="#3F3D56"/>
<path d="M134.488 183.895H129.505V188.055H134.488V183.895Z" fill="#3F3D56"/>
<path d="M52.2682 110.679H100.438V120.663C84.9979 116.394 68.8972 116.701 52.2682 120.663V110.679Z" fill="#3F3D56"/>
<path d="M52.2682 130.647C67.3024 135.084 83.3589 135.084 100.438 130.647V140.631H52.2682V130.647Z" fill="#3F3D56"/>
<path d="M52.2682 150.615H100.438V160.599C84.0217 155.348 67.9482 155.1 52.2682 160.599V150.615Z" fill="#3F3D56"/>
<path d="M52.2682 170.583C67.9778 176.648 84.0487 176.396 100.438 170.583V180.567H52.2682V170.583Z" fill="#3F3D56"/>
<path d="M311.155 153.238H345V169.575L341.977 170.522L331.92 173.667L316.141 170.005L300.381 166.346L292.059 164.415L287.903 162.875C291.36 158.123 297.647 154.386 311.155 153.238Z" fill="#3F3D56"/>
<path d="M345 162.875V212.599H287.903C287.885 212.569 287.873 212.541 287.855 212.51V212.507C287.842 212.472 287.826 212.439 287.807 212.406C286.916 210.609 286.117 208.817 285.41 207.029C279.418 191.899 280.069 177.169 287.903 162.875H345Z" fill="#F2F2F2"/>
<path d="M324.031 186.391H312.404V212.598H324.031V186.391Z" fill="#CCCCCC"/>
<path d="M299.946 193.879V189.719H294.963V193.879H299.531H299.946Z" fill="#3F3D56"/>
<path d="M299.531 197.207H294.963V201.367H299.946V197.207H299.531Z" fill="#3F3D56"/>
<path d="M308.251 189.719H303.268V193.878H308.251V189.719Z" fill="#3F3D56"/>
<path d="M308.251 197.207H303.268V201.367H308.251V197.207Z" fill="#3F3D56"/>
<path d="M333.997 193.879V189.719H329.014V193.879H333.582H333.997Z" fill="#3F3D56"/>
<path d="M333.582 197.207H329.014V201.367H333.997V197.207H333.582Z" fill="#3F3D56"/>
<path d="M342.302 189.719H337.319V193.878H342.302V189.719Z" fill="#3F3D56"/>
<path d="M342.302 197.207H337.319V201.367H342.302V197.207Z" fill="#3F3D56"/>
<path d="M300.383 133.932H307.541C314.601 133.932 321.371 136.742 326.363 141.743C331.355 146.744 334.16 153.526 334.16 160.599H300.383V133.932Z" fill="#3F3D56"/>
<path d="M83.5837 61.5364H90.7416C97.8014 61.5364 104.572 64.3459 109.564 69.3469C114.556 74.3478 117.361 81.1306 117.361 88.2031H83.5837V61.5364Z" fill="#3F3D56"/>
<path d="M198.006 128.502H205.163C212.223 128.502 218.994 131.312 223.986 136.313C228.978 141.314 231.782 148.097 231.782 155.169H198.006V128.502Z" fill="#3F3D56"/>
<path d="M334.16 170.583H300.383V180.567H334.16V170.583Z" fill="#3F3D56"/>
<path d="M345 212.186H1.7345V213.392H345V212.186Z" fill="#3F3D56"/>
<path d="M33.3936 164.522H32.1892V212.183H33.3936V164.522Z" fill="#3F3D56"/>
<path d="M44.5092 170.596C44.5859 187.262 32.8817 200.827 32.8817 200.827C32.8817 200.827 17.8928 187.082 20.9764 170.705C24.0776 154.234 33.7429 140.545 32.604 140.475C32.604 140.475 44.4326 153.931 44.5092 170.596Z" fill="url(#paint5_linear_208_522)"/>
<path d="M153.838 164.522H152.633V212.183H153.838V164.522Z" fill="#3F3D56"/>
<path d="M164.953 170.596C166.039 187.227 153.326 200.827 153.326 200.827C153.326 200.827 141.497 187.371 141.42 170.705C141.344 154.039 153.048 140.475 153.048 140.475C151.907 145.043 164.075 157.14 164.953 170.596Z" fill="url(#paint6_linear_208_522)"/>
<path d="M75.5865 87.0492L127.904 84.4852L149.85 102.837L145.97 106.346L111.217 105.563L75.5865 87.0492Z" fill="#3F3D56"/>
<path d="M23.3842 172.215L20.5658 174.767L20.2226 175.074L19.5059 175.726L1.7344 175.328V154.297C1.15627 154.17 0.578131 154.049 0 153.935L1.43932 153.862L1.7344 154.11L4.48655 156.408L12.3154 162.96L21.0596 170.272L23.3842 172.215Z" fill="#3F3D56"/>
<path d="M190.008 156.429L242.326 153.865L264.272 172.216L260.392 175.726L225.639 174.942L190.008 156.429Z" fill="#3F3D56"/>
</g>
<defs>
<linearGradient id="paint0_linear_208_522" x1="187.599" y1="0" x2="187.599" y2="176.863" gradientUnits="userSpaceOnUse">
<stop stop-color="#FDB218"/>
<stop offset="1" stop-color="#1C1654"/>
</linearGradient>
<linearGradient id="paint1_linear_208_522" x1="187.599" y1="210.167" x2="187.599" y2="218" gradientUnits="userSpaceOnUse">
<stop stop-color="#FDB218"/>
<stop offset="1" stop-color="#1C1654"/>
</linearGradient>
<linearGradient id="paint2_linear_208_522" x1="14.1236" y1="77.9644" x2="37.8869" y2="81.8138" gradientUnits="userSpaceOnUse">
<stop stop-color="#FDB218"/>
<stop offset="1" stop-color="#1C1654"/>
</linearGradient>
<linearGradient id="paint3_linear_208_522" x1="281.623" y1="91.9395" x2="281.623" y2="118.388" gradientUnits="userSpaceOnUse">
<stop stop-color="#FDB218"/>
<stop offset="1" stop-color="#1C1654"/>
</linearGradient>
<linearGradient id="paint4_linear_208_522" x1="282.664" y1="203.112" x2="282.664" y2="212.998" gradientUnits="userSpaceOnUse">
<stop stop-color="#FDB218"/>
<stop offset="1" stop-color="#1C1654"/>
</linearGradient>
<linearGradient id="paint5_linear_208_522" x1="32.534" y1="140.475" x2="32.534" y2="200.827" gradientUnits="userSpaceOnUse">
<stop stop-color="#FDB218"/>
<stop offset="1" stop-color="#1C1654"/>
</linearGradient>
<linearGradient id="paint6_linear_208_522" x1="153.22" y1="140.475" x2="153.22" y2="200.827" gradientUnits="userSpaceOnUse">
<stop stop-color="#FDB218"/>
<stop offset="1" stop-color="#1C1654"/>
</linearGradient>
<clipPath id="clip0_208_522">
<rect width="345" height="218" fill="white"/>
</clipPath>
</defs>
</svg>
