<svg width="345" height="304" viewBox="0 0 345 304" fill="none" xmlns="http://www.w3.org/2000/svg">
<path d="M329.766 303.596L329.308 303.424C329.208 303.386 319.193 299.55 314.501 290.853C309.809 282.154 312.107 271.682 312.13 271.577L312.239 271.1L312.696 271.272C312.797 271.31 322.812 275.146 327.503 283.843C332.195 292.542 329.898 303.014 329.874 303.119L329.766 303.596ZM315.252 290.448C319.219 297.802 327.133 301.571 329.138 302.432C329.519 300.284 330.715 291.595 326.752 284.248C322.79 276.902 314.872 273.127 312.866 272.264C312.485 274.414 311.29 283.101 315.252 290.448Z" fill="#3F3D56"/>
<path d="M318.086 287.801C326.518 292.872 329.765 302.945 329.765 302.945C329.765 302.945 319.342 304.795 310.911 299.724C302.48 294.654 299.233 284.581 299.233 284.581C299.233 284.581 309.655 282.73 318.086 287.801Z" fill="url(#paint0_linear_208_487)"/>
<path d="M182.351 162.923C182.759 162.291 183.297 161.753 183.928 161.343C184.56 160.934 185.27 160.662 186.014 160.546C186.757 160.43 187.517 160.473 188.243 160.671C188.969 160.869 189.645 161.218 190.227 161.696C190.41 161.848 190.583 162.012 190.743 162.188L211.74 159.132L212.909 143.348C212.998 142.137 213.565 141.012 214.485 140.219C215.405 139.426 216.602 139.03 217.813 139.12C219.024 139.209 220.15 139.776 220.944 140.696C221.737 141.615 222.132 142.812 222.043 144.023C222.041 144.051 222.038 144.079 222.036 144.107L219.989 166.255L219.979 166.304C219.713 167.156 219.179 167.899 218.457 168.423C217.735 168.947 216.863 169.224 215.971 169.214L191.274 168.787C191.178 168.934 191.075 169.075 190.964 169.21C190.487 169.792 189.891 170.266 189.218 170.601C188.544 170.936 187.807 171.126 187.055 171.156C186.303 171.187 185.553 171.059 184.854 170.78C184.155 170.5 183.523 170.077 182.999 169.536C182.893 169.427 182.792 169.315 182.697 169.199C181.985 168.323 181.569 167.244 181.506 166.117C181.444 164.99 181.74 163.872 182.351 162.923Z" fill="#FFB7B7"/>
<path d="M224.682 297.502L218.694 297.502L215.845 274.41L224.683 274.411L224.682 297.502Z" fill="#FFB7B7"/>
<path d="M226.209 303.305L206.9 303.305V303.061C206.9 301.068 207.692 299.157 209.101 297.748C210.511 296.339 212.422 295.547 214.416 295.547H214.416L226.21 295.548L226.209 303.305Z" fill="#2F2E41"/>
<path d="M266.528 292.075L260.86 294.007L250.706 273.071L259.072 270.219L266.528 292.075Z" fill="#FFB7B7"/>
<path d="M269.848 297.074L251.572 303.305L251.493 303.074C250.85 301.188 250.982 299.124 251.861 297.336C252.74 295.547 254.294 294.181 256.18 293.537L256.181 293.537L267.343 289.731L269.848 297.074Z" fill="#2F2E41"/>
<path d="M231.277 95.5986C231.277 95.5986 225.316 93.6307 221.484 101.502C217.653 109.374 211.692 118.032 211.692 118.032L215.098 118.82C215.098 118.82 215.95 113.31 218.078 112.522L217.227 119.607C217.227 119.607 242.772 127.872 254.267 118.82L253.841 116.065C253.841 116.065 255.544 116.458 255.544 118.82L256.822 117.639C256.822 117.639 255.544 115.277 251.713 112.129C249.198 110.062 248.333 106.131 248.036 103.672C247.801 101.591 246.908 99.6392 245.488 98.0995C242.941 95.3714 238.301 92.4718 231.277 95.5986Z" fill="#2F2E41"/>
<path d="M233.474 123.1C239.486 123.1 244.36 118.228 244.36 112.217C244.36 106.207 239.486 101.334 233.474 101.334C227.461 101.334 222.587 106.207 222.587 112.217C222.587 118.228 227.461 123.1 233.474 123.1Z" fill="#FFB7B7"/>
<path d="M218.958 132.062L216.979 131.403C216.979 131.403 213.02 133.052 213.02 136.02C213.02 138.988 212.36 150.86 212.36 150.86L221.267 151.85L218.958 132.062Z" fill="#CBCBCB"/>
<path d="M254.385 196.932C253.564 196.013 253.101 194.829 253.079 193.596C253.058 192.364 253.479 191.165 254.268 190.217L248.711 143.695C248.656 142.598 249.04 141.525 249.776 140.71C250.513 139.895 251.543 139.405 252.64 139.349C253.738 139.292 254.813 139.673 255.629 140.408C256.446 141.143 256.937 142.172 256.996 143.269C256.997 143.284 256.997 143.299 256.998 143.314L261.969 189.885C262.149 190.066 262.315 190.26 262.466 190.466C262.865 191.018 263.151 191.642 263.308 192.304C263.466 192.966 263.491 193.652 263.383 194.323C263.275 194.995 263.036 195.639 262.679 196.218C262.322 196.797 261.855 197.3 261.304 197.699C261.246 197.74 261.188 197.78 261.13 197.819C260.491 198.242 259.767 198.518 259.01 198.627C258.252 198.737 257.48 198.677 256.748 198.453C255.834 198.176 255.016 197.649 254.385 196.932Z" fill="#FFB7B7"/>
<path d="M249.296 150.86L258.203 149.871C258.203 149.871 257.544 137.998 257.544 135.03C257.544 132.062 253.585 130.413 253.585 130.413L251.605 131.073L249.296 150.86Z" fill="#CBCBCB"/>
<path d="M220.278 167.333C220.278 167.333 212.69 181.202 212.69 198.021C212.69 214.841 212.03 292.013 212.03 292.013C212.03 292.013 221.927 296.63 227.865 291.023L233.144 205.606L253.927 289.374C253.927 289.374 263.824 291.353 268.442 288.055L259.535 229.681C259.535 229.681 255.906 174.936 246.01 170.978C236.113 167.02 220.278 167.333 220.278 167.333Z" fill="#2F2E41"/>
<path d="M221.71 112.286C225.564 109.498 228.683 106.286 230.747 102.466C230.747 102.466 237.82 110.322 242.142 110.715C246.464 111.108 242.535 101.288 242.535 101.288L234.676 99.3236L227.211 100.109L221.317 104.037L221.71 112.286Z" fill="#2F2E41"/>
<path d="M244.36 128.434C244.36 128.434 244.674 128.266 225.887 128.95L218.024 131.115L216.979 131.403C216.979 131.403 217.969 151.19 220.608 154.818C223.247 158.446 222.587 160.425 221.927 160.754C221.268 161.084 219.618 160.425 220.608 162.073C221.597 163.722 222.917 162.733 221.597 163.722C220.278 164.712 219.618 168.34 219.618 168.34L248.649 172.297C248.649 172.297 249.638 159.435 252.278 152.839C254.917 146.243 255.576 143.605 255.576 143.605L253.597 130.413L244.36 128.434Z" fill="#CBCBCB"/>
<path d="M189.167 72.1805H187.497V26.4611C187.497 19.4432 184.709 12.7127 179.745 7.75031C174.781 2.78788 168.048 1.13126e-05 161.028 0L64.1364 0C57.1164 -1.92312e-05 50.3838 2.78782 45.4199 7.75023C40.456 12.7126 37.6673 19.4431 37.6672 26.461V277.281C37.6672 284.299 40.4559 291.03 45.4198 295.992C50.3837 300.954 57.1162 303.742 64.1363 303.742H161.028C164.504 303.742 167.946 303.058 171.157 301.728C174.369 300.398 177.287 298.449 179.745 295.992C182.203 293.535 184.152 290.618 185.482 287.407C186.813 284.197 187.497 280.756 187.497 277.281V104.724H189.167L189.167 72.1805Z" fill="#3F3D56"/>
<path d="M181.864 26.6471V277.098C181.866 279.691 181.358 282.259 180.367 284.655C179.377 287.052 177.924 289.229 176.092 291.064C174.26 292.899 172.084 294.356 169.688 295.35C167.293 296.344 164.725 296.857 162.132 296.86H64.7394C59.5004 296.863 54.4746 294.786 50.7674 291.086C47.0603 287.385 44.9756 282.363 44.9719 277.126V26.6471C44.9701 24.0538 45.4792 21.4855 46.4702 19.0889C47.4612 16.6923 48.9147 14.5143 50.7477 12.6793C52.5807 10.8443 54.7573 9.38813 57.1533 8.39403C59.5492 7.39993 62.1175 6.88733 64.7116 6.88551H76.5496C75.968 8.31101 75.746 9.85763 75.9032 11.3891C76.0604 12.9206 76.5919 14.3899 77.451 15.6676C78.3101 16.9453 79.4703 17.9922 80.8295 18.716C82.1887 19.4398 83.7051 19.8183 85.2451 19.8182H140.755C142.295 19.8183 143.811 19.4398 145.17 18.716C146.529 17.9922 147.69 16.9453 148.549 15.6676C149.408 14.3899 149.939 12.9206 150.096 11.3891C150.254 9.85763 150.032 8.31101 149.45 6.88551H162.096C167.334 6.88081 172.36 8.95645 176.067 12.6558C179.774 16.3552 181.859 21.3752 181.864 26.6116L181.864 26.6471Z" fill="white"/>
<path d="M181.864 63.7005V55.1697H168.949V8.10534C166.755 7.29547 164.435 6.88238 162.096 6.88539H160.415V55.1697H115.615V19.8181H107.082V55.1697H69.5351V6.88544H64.7394C63.4851 6.88348 62.2334 7.00203 61.0017 7.23946V55.1697H44.9719V63.7005H61.0017V83.4324L44.9721 92.684V102.537L61.0017 93.2855V151.994H44.9719V160.525H61.0017V245.406H44.9719V253.937H61.0017V296.506C62.2334 296.743 63.4851 296.862 64.7394 296.86H69.5351V253.937H107.082V296.86H115.615V253.937H160.415V296.86H162.096C164.435 296.863 166.755 296.45 168.949 295.64V253.937H181.864V245.406H168.949V208.297H181.749V199.767H168.949V160.525H181.864V151.994H168.949V99.9563H181.864V91.4256H168.949V63.7005L181.864 63.7005ZM95.191 63.7005L69.5353 78.5101L69.5351 63.7005H95.191ZM69.5351 88.359L107.082 66.6865V151.994H69.5351V88.359ZM69.5351 245.406V160.525H107.082V245.406H69.5351ZM160.415 245.406H115.615V208.297H160.415V245.406ZM160.415 199.767H115.615V160.525H160.415V199.767ZM160.415 151.994H115.615V99.9563H160.415V151.994ZM160.415 91.4255H115.615V63.7005H160.415V91.4255Z" fill="#E5E5E5"/>
<path d="M189.002 91.5834C189.002 118.674 139.935 179.024 139.935 179.024C139.935 179.024 90.8685 118.674 90.8685 91.5834C90.8685 78.574 96.0381 66.0974 105.24 56.8984C114.442 47.6993 126.922 42.5314 139.935 42.5314C152.949 42.5314 165.429 47.6993 174.631 56.8984C183.833 66.0974 189.002 78.574 189.002 91.5834Z" fill="url(#paint1_linear_208_487)"/>
<path d="M168.949 89.4507C168.949 95.1873 167.248 100.795 164.06 105.565C160.872 110.335 156.34 114.052 151.039 116.248C145.737 118.443 139.904 119.017 134.276 117.898C128.648 116.779 123.478 114.016 119.42 109.96C115.363 105.904 112.599 100.736 111.48 95.1092C110.36 89.4829 110.935 83.651 113.131 78.3511C115.327 73.0512 119.046 68.5213 123.817 65.3342C128.588 62.1471 134.198 60.446 139.936 60.446C143.744 60.4443 147.516 61.1924 151.035 62.6478C154.554 64.1031 157.752 66.2371 160.446 68.928C163.14 71.6189 165.278 74.8139 166.737 78.3306C168.196 81.8473 168.948 85.6169 168.949 89.4241V89.4507Z" fill="white"/>
<path d="M139.835 100.9C145.805 100.9 150.644 96.0624 150.644 90.0946C150.644 84.1268 145.805 79.2889 139.835 79.2889C133.865 79.2889 129.026 84.1268 129.026 90.0946C129.026 96.0624 133.865 100.9 139.835 100.9Z" fill="#FDB218"/>
<path d="M155.522 114.774C150.862 117.736 145.455 119.309 139.933 119.308C134.411 119.308 129.004 117.733 124.345 114.77C125.314 111.384 127.36 108.406 130.173 106.286C132.986 104.166 136.413 103.019 139.935 103.02C143.458 103.02 146.885 104.168 149.697 106.289C152.509 108.409 154.554 111.388 155.522 114.774Z" fill="#FDB218"/>
<path d="M139.935 214.427C147.24 214.427 153.162 208.507 153.162 201.204C153.162 193.901 147.24 187.981 139.935 187.981C132.63 187.981 126.709 193.901 126.709 201.204C126.709 208.507 132.63 214.427 139.935 214.427Z" fill="url(#paint2_linear_208_487)"/>
<path d="M344.573 304H1.53244C1.41928 304 1.31076 303.955 1.23074 303.875C1.15073 303.795 1.10577 303.687 1.10577 303.573C1.10577 303.46 1.15073 303.352 1.23074 303.272C1.31076 303.192 1.41928 303.147 1.53244 303.147H344.573C344.686 303.147 344.795 303.192 344.875 303.272C344.955 303.352 345 303.46 345 303.573C345 303.687 344.955 303.795 344.875 303.875C344.795 303.955 344.686 304 344.573 304Z" fill="#CBCBCB"/>
<defs>
<linearGradient id="paint0_linear_208_487" x1="314.499" y1="284.252" x2="314.499" y2="303.274" gradientUnits="userSpaceOnUse">
<stop stop-color="#FDB218"/>
<stop offset="1" stop-color="#1C1654"/>
</linearGradient>
<linearGradient id="paint1_linear_208_487" x1="139.935" y1="42.5314" x2="139.935" y2="179.024" gradientUnits="userSpaceOnUse">
<stop stop-color="#FDB218"/>
<stop offset="1" stop-color="#1C1654"/>
</linearGradient>
<linearGradient id="paint2_linear_208_487" x1="139.935" y1="187.981" x2="139.935" y2="214.427" gradientUnits="userSpaceOnUse">
<stop stop-color="#FDB218"/>
<stop offset="1" stop-color="#1C1654"/>
</linearGradient>
</defs>
</svg>
