<svg width="345" height="345" viewBox="0 0 345 345" fill="none" xmlns="http://www.w3.org/2000/svg">
<g clip-path="url(#clip0_208_522)">
<path d="M251.735 180.09C251.735 201.005 219.101 262.686 200.39 296.332C199.121 298.615 197.266 300.517 195.017 301.841C192.768 303.165 190.207 303.863 187.599 303.863C184.99 303.863 182.429 303.165 180.181 301.841C177.932 300.517 176.077 298.615 174.808 296.332C156.097 262.686 123.462 201.005 123.462 180.09C123.462 150.769 152.177 127 187.599 127C223.02 127 251.735 150.769 251.735 180.09Z" fill="url(#paint0_linear_208_522)"/>
<path d="M187.9 214.478C207.191 214.478 222.829 198.812 222.829 179.487C222.829 160.162 207.191 144.496 187.9 144.496C168.609 144.496 152.971 160.162 152.971 179.487C152.971 198.812 168.609 214.478 187.9 214.478Z" fill="white"/>
<path d="M42.1444 211.148C53.6987 211.148 63.0653 201.764 63.0653 190.189C63.0653 178.614 53.6987 169.231 42.1444 169.231C30.5901 169.231 21.2235 178.614 21.2235 190.189C21.2235 201.764 30.5901 211.148 42.1444 211.148Z" fill="#FF6584"/>
<path d="M187.599 345C215.568 345 238.241 343.247 238.241 341.084C238.241 338.921 215.568 337.167 187.599 337.167C159.63 337.167 136.957 338.921 136.957 341.084C136.957 343.247 159.63 345 187.599 345Z" fill="url(#paint1_linear_208_522)"/>
<path opacity="0.4" d="M37.8847 208.827C38.9495 202.254 34.4935 196.061 27.9321 194.994C21.3707 193.927 15.1884 198.391 14.1236 204.964C13.0589 211.538 17.5148 217.731 24.0762 218.798C30.6376 219.864 36.8199 215.4 37.8847 208.827Z" fill="url(#paint2_linear_208_522)"/>
<path d="M307.596 269.095C212.813 233.5 97.2105 268.202 30.4664 339.186C30.087 339.584 29.7076 339.988 29.3403 340.392H28.3225C28.6718 339.988 29.0332 339.584 29.3885 339.186C97.5176 262.802 211.584 232.36 307.596 269.095Z" fill="#3F3D56"/>
<path d="M333.498 280.901C325.12 276.425 316.469 272.482 307.596 269.095C316.492 272.426 325.146 276.371 333.498 280.901Z" fill="#3F3D56"/>
<path opacity="0.4" d="M281.623 245.388C288.913 245.388 294.823 239.467 294.823 232.164C294.823 224.86 288.913 218.939 281.623 218.939C274.332 218.939 268.422 224.86 268.422 232.164C268.422 239.467 274.332 245.388 281.623 245.388Z" fill="url(#paint3_linear_208_522)"/>
<path d="M283.093 333.883C284.113 337.661 287.607 340.001 287.607 340.001C287.607 340.001 289.447 336.216 288.427 332.438C287.407 328.66 283.913 326.32 283.913 326.32C283.913 326.32 282.072 330.106 283.093 333.883Z" fill="#3F3D56"/>
<path d="M284.592 333.072C287.391 335.801 287.733 339.998 287.733 339.998C287.733 339.998 283.536 339.768 280.737 337.038C277.938 334.309 277.596 330.112 277.596 330.112C277.596 330.112 281.792 330.342 284.592 333.072Z" fill="url(#paint4_linear_208_522)"/>
<path d="M2.02345 281.357V287.185L1.73438 287.499V281.297C1.83073 281.315 1.92711 281.339 2.02345 281.357Z" fill="#3F3D56"/>
<path d="M20.5598 339.183C20.4755 339.322 20.3852 339.461 20.2948 339.599H1.7344V281.647L2.02347 281.357L4.48655 284.162V280.06H12.3154V293.079L20.2226 302.074L20.2948 302.159C20.3912 302.46 20.4815 302.762 20.5718 303.064C20.5725 303.068 20.5746 303.073 20.5779 303.076C21.7637 306.878 22.7368 310.743 23.4926 314.653C25.215 323.877 24.956 332.336 20.5598 339.183Z" fill="#CCCCCC"/>
<path d="M8.25136 313.391H3.26831V317.551H8.25136V313.391Z" fill="#3F3D56"/>
<path d="M8.25136 320.879H3.26831V325.039H8.25136V320.879Z" fill="#3F3D56"/>
<path d="M161.749 305.487L159.258 301.327L182.512 281.359C199.703 273.069 220.426 275.461 242.309 281.359V287.183L220.715 310.479L195.8 315.471L161.749 305.487Z" fill="#3F3D56"/>
<path d="M252.602 293.077C256.731 288.475 257.305 284.1 252.602 280.059H244.773V284.164L242.309 281.359L222.376 301.327L219.054 304.655L214.902 321.295L222.376 339.598H260.579V302.159L252.602 293.077Z" fill="#CCCCCC"/>
<path d="M159.258 301.327H222.376V339.598H159.258C151.621 331.322 155.588 316.237 159.258 301.327Z" fill="#F2F2F2"/>
<path d="M213.656 313.391H200.368V325.039H213.656V313.391Z" fill="#3F3D56"/>
<path d="M194.969 312.975H183.342V339.598H194.969V312.975Z" fill="#CCCCCC"/>
<path d="M170.054 317.135V312.975H165.072V317.135H169.639H170.054Z" fill="#3F3D56"/>
<path d="M169.639 320.462H165.072V324.623H170.054V320.462H169.639Z" fill="#3F3D56"/>
<path d="M178.359 312.975H173.376V317.135H178.359V312.975Z" fill="#3F3D56"/>
<path d="M178.359 320.463H173.376V324.622H178.359V320.463Z" fill="#3F3D56"/>
<path d="M240.232 317.551V313.391H235.249V317.551H239.817H240.232Z" fill="#3F3D56"/>
<path d="M239.817 320.879H235.249V325.039H240.232V320.879H239.817Z" fill="#3F3D56"/>
<path d="M248.537 313.391H243.554V317.551H248.537V313.391Z" fill="#3F3D56"/>
<path d="M248.537 320.879H243.554V325.039H248.537V320.879Z" fill="#3F3D56"/>
<path d="M49.3616 235.6L45.2093 232.271L68.4634 211.471H127.429V229.775L89.2262 255.568L49.3616 235.6Z" fill="#3F3D56"/>
<path d="M138.18 223.139V211.887H130.351V214.643L127.429 211.471L108.327 232.271L100.853 237.263L89.2634 322.089L106.742 339.598H147.361C153.585 308.234 158.521 276.014 147.361 233.103L138.18 223.139Z" fill="#CCCCCC"/>
<path d="M45.2089 232.271H108.327V339.598H45.2089C38.302 297.903 34.9287 259.236 45.2089 232.271Z" fill="#F2F2F2"/>
<path d="M81.336 313.391H69.7089V339.598H81.336V313.391Z" fill="#CCCCCC"/>
<path d="M57.2513 320.879V316.719H52.2685V320.879H56.8363H57.2513Z" fill="#3F3D56"/>
<path d="M56.8363 324.207H52.2685V328.367H57.2513V324.207H56.8363Z" fill="#3F3D56"/>
<path d="M65.5564 316.719H60.5733V320.878H65.5564V316.719Z" fill="#3F3D56"/>
<path d="M90.8871 324.207H86.3192V328.367H91.302V324.207H90.8871Z" fill="#3F3D56"/>
<path d="M99.6072 316.719H94.6241V320.878H99.6072V316.719Z" fill="#3F3D56"/>
<path d="M99.6072 324.207H94.6241V328.367H99.6072V324.207Z" fill="#3F3D56"/>
<path d="M126.183 237.679V233.519H121.2V237.679H125.768H126.183Z" fill="#3F3D56"/>
<path d="M125.768 241.008H121.2V245.167H126.183V241.008H125.768Z" fill="#3F3D56"/>
<path d="M134.488 233.519H129.505V237.679H134.488V233.519Z" fill="#3F3D56"/>
<path d="M134.488 241.007H129.505V245.167H134.488V241.007Z" fill="#3F3D56"/>
<path d="M126.183 260.976V256.815H121.2V260.976H125.768H126.183Z" fill="#3F3D56"/>
<path d="M125.768 264.303H121.2V268.463H126.183V264.303H125.768Z" fill="#3F3D56"/>
<path d="M134.488 256.815H129.505V260.975H134.488V256.815Z" fill="#3F3D56"/>
<path d="M134.488 264.303H129.505V268.463H134.488V264.303Z" fill="#3F3D56"/>
<path d="M126.183 284.271V280.111H121.2V284.271H125.768H126.183Z" fill="#3F3D56"/>
<path d="M125.768 287.599H121.2V291.759H126.183V287.599H125.768Z" fill="#3F3D56"/>
<path d="M134.488 280.111H129.505V284.271H134.488V280.111Z" fill="#3F3D56"/>
<path d="M134.488 287.599H129.505V291.759H134.488V287.599Z" fill="#3F3D56"/>
<path d="M126.183 307.567V303.407H121.2V307.567H125.768H126.183Z" fill="#3F3D56"/>
<path d="M125.768 310.895H121.2V315.055H126.183V310.895H125.768Z" fill="#3F3D56"/>
<path d="M134.488 303.407H129.505V307.567H134.488V303.407Z" fill="#3F3D56"/>
<path d="M134.488 310.895H129.505V315.055H134.488V310.895Z" fill="#3F3D56"/>
<path d="M52.2682 237.679H100.438V247.663C84.9979 243.394 68.8972 243.701 52.2682 247.663V237.679Z" fill="#3F3D56"/>
<path d="M52.2682 257.647C67.3024 262.084 83.3589 262.084 100.438 257.647V267.631H52.2682V257.647Z" fill="#3F3D56"/>
<path d="M52.2682 277.615H100.438V287.599C84.0217 282.348 67.9482 282.1 52.2682 287.599V277.615Z" fill="#3F3D56"/>
<path d="M52.2682 297.583C67.9778 303.648 84.0487 303.396 100.438 297.583V307.567H52.2682V297.583Z" fill="#3F3D56"/>
<path d="M311.155 280.238H345V296.575L341.977 297.522L331.92 300.667L316.141 297.005L300.381 293.346L292.059 291.415L287.903 289.875C291.36 285.123 297.647 281.386 311.155 280.238Z" fill="#3F3D56"/>
<path d="M345 289.875V339.599H287.903C287.885 339.569 287.873 339.541 287.855 339.51V339.507C287.842 339.472 287.826 339.439 287.807 339.406C286.916 337.609 286.117 335.817 285.41 334.029C279.418 318.899 280.069 304.169 287.903 289.875H345Z" fill="#F2F2F2"/>
<path d="M324.031 313.391H312.404V339.598H324.031V313.391Z" fill="#CCCCCC"/>
<path d="M299.946 320.879V316.719H294.963V320.879H299.531H299.946Z" fill="#3F3D56"/>
<path d="M299.531 324.207H294.963V328.367H299.946V324.207H299.531Z" fill="#3F3D56"/>
<path d="M308.251 316.719H303.268V320.878H308.251V316.719Z" fill="#3F3D56"/>
<path d="M308.251 324.207H303.268V328.367H308.251V324.207Z" fill="#3F3D56"/>
<path d="M333.997 320.879V316.719H329.014V320.879H333.582H333.997Z" fill="#3F3D56"/>
<path d="M333.582 324.207H329.014V328.367H333.997V324.207H333.582Z" fill="#3F3D56"/>
<path d="M342.302 316.719H337.319V320.878H342.302V316.719Z" fill="#3F3D56"/>
<path d="M342.302 324.207H337.319V328.367H342.302V324.207Z" fill="#3F3D56"/>
<path d="M300.383 260.932H307.541C314.601 260.932 321.371 263.742 326.363 268.743C331.355 273.744 334.16 280.526 334.16 287.599H300.383V260.932Z" fill="#3F3D56"/>
<path d="M83.5837 188.536H90.7416C97.8014 188.536 104.572 191.346 109.564 196.347C114.556 201.348 117.361 208.131 117.361 215.203H83.5837V188.536Z" fill="#3F3D56"/>
<path d="M198.006 255.502H205.163C212.223 255.502 218.994 258.312 223.986 263.313C228.978 268.314 231.782 275.097 231.782 282.169H198.006V255.502Z" fill="#3F3D56"/>
<path d="M334.16 297.583H300.383V307.567H334.16V297.583Z" fill="#3F3D56"/>
<path d="M345 339.186H1.7345V340.392H345V339.186Z" fill="#3F3D56"/>
<path d="M33.3936 291.522H32.1892V339.183H33.3936V291.522Z" fill="#3F3D56"/>
<path d="M44.5092 297.596C44.5859 314.262 32.8817 327.827 32.8817 327.827C32.8817 327.827 17.8928 314.082 20.9764 297.705C24.0776 281.234 33.7429 267.545 32.604 267.475C32.604 267.475 44.4326 280.931 44.5092 297.596Z" fill="url(#paint5_linear_208_522)"/>
<path d="M153.838 291.522H152.633V339.183H153.838V291.522Z" fill="#3F3D56"/>
<path d="M164.953 297.596C166.039 314.227 153.326 327.827 153.326 327.827C153.326 327.827 141.497 314.371 141.42 297.705C141.344 281.039 153.048 267.475 153.048 267.475C151.907 272.043 164.075 284.14 164.953 297.596Z" fill="url(#paint6_linear_208_522)"/>
<path d="M75.5865 214.049L127.904 211.485L149.85 229.837L145.97 233.346L111.217 232.563L75.5865 214.049Z" fill="#3F3D56"/>
<path d="M23.3842 299.215L20.5658 301.767L20.2226 302.074L19.5059 302.726L1.7344 302.328V281.297C1.15627 281.17 0.578131 281.049 0 280.935L1.43932 280.862L1.7344 281.11L4.48655 283.408L12.3154 289.96L21.0596 297.272L23.3842 299.215Z" fill="#3F3D56"/>
<path d="M190.008 283.429L242.326 280.865L264.272 299.216L260.392 302.726L225.639 301.942L190.008 283.429Z" fill="#3F3D56"/>
</g>
<defs>
<linearGradient id="paint0_linear_208_522" x1="187.599" y1="127" x2="187.599" y2="303.863" gradientUnits="userSpaceOnUse">
<stop stop-color="#FDB218"/>
<stop offset="1" stop-color="#1C1654"/>
</linearGradient>
<linearGradient id="paint1_linear_208_522" x1="187.599" y1="337.167" x2="187.599" y2="345" gradientUnits="userSpaceOnUse">
<stop stop-color="#FDB218"/>
<stop offset="1" stop-color="#1C1654"/>
</linearGradient>
<linearGradient id="paint2_linear_208_522" x1="14.1236" y1="204.964" x2="37.8869" y2="208.814" gradientUnits="userSpaceOnUse">
<stop stop-color="#FDB218"/>
<stop offset="1" stop-color="#1C1654"/>
</linearGradient>
<linearGradient id="paint3_linear_208_522" x1="281.623" y1="218.939" x2="281.623" y2="245.388" gradientUnits="userSpaceOnUse">
<stop stop-color="#FDB218"/>
<stop offset="1" stop-color="#1C1654"/>
</linearGradient>
<linearGradient id="paint4_linear_208_522" x1="282.664" y1="330.112" x2="282.664" y2="339.998" gradientUnits="userSpaceOnUse">
<stop stop-color="#FDB218"/>
<stop offset="1" stop-color="#1C1654"/>
</linearGradient>
<linearGradient id="paint5_linear_208_522" x1="32.534" y1="267.475" x2="32.534" y2="327.827" gradientUnits="userSpaceOnUse">
<stop stop-color="#FDB218"/>
<stop offset="1" stop-color="#1C1654"/>
</linearGradient>
<linearGradient id="paint6_linear_208_522" x1="153.22" y1="267.475" x2="153.22" y2="327.827" gradientUnits="userSpaceOnUse">
<stop stop-color="#FDB218"/>
<stop offset="1" stop-color="#1C1654"/>
</linearGradient>
<clipPath id="clip0_208_522">
<rect width="345" height="345" fill="white"/>
</clipPath>
</defs>
</svg>
