<svg width="345" height="345" viewBox="0 0 345 345" fill="none" xmlns="http://www.w3.org/2000/svg">
<path d="M329.766 344.596L329.308 344.424C329.208 344.386 319.193 340.55 314.501 331.853C309.809 323.154 312.107 312.682 312.13 312.577L312.239 312.1L312.696 312.272C312.797 312.31 322.812 316.146 327.503 324.843C332.195 333.542 329.898 344.014 329.874 344.119L329.766 344.596ZM315.252 331.448C319.219 338.802 327.133 342.571 329.138 343.432C329.519 341.284 330.715 332.595 326.752 325.248C322.79 317.902 314.872 314.127 312.866 313.264C312.485 315.414 311.29 324.101 315.252 331.448Z" fill="#3F3D56"/>
<path d="M318.086 328.801C326.518 333.872 329.765 343.945 329.765 343.945C329.765 343.945 319.342 345.795 310.911 340.724C302.48 335.654 299.233 325.581 299.233 325.581C299.233 325.581 309.655 323.73 318.086 328.801Z" fill="url(#paint0_linear_208_487)"/>
<path d="M182.351 203.923C182.759 203.291 183.297 202.753 183.928 202.343C184.56 201.934 185.27 201.662 186.014 201.546C186.757 201.43 187.517 201.473 188.243 201.671C188.969 201.869 189.645 202.218 190.227 202.696C190.41 202.848 190.583 203.012 190.743 203.188L211.74 200.132L212.909 184.348C212.998 183.137 213.565 182.012 214.485 181.219C215.405 180.426 216.602 180.03 217.813 180.12C219.024 180.209 220.15 180.776 220.944 181.696C221.737 182.615 222.132 183.812 222.043 185.023C222.041 185.051 222.038 185.079 222.036 185.107L219.989 207.255L219.979 207.304C219.713 208.156 219.179 208.899 218.457 209.423C217.735 209.947 216.863 210.224 215.971 210.214L191.274 209.787C191.178 209.934 191.075 210.075 190.964 210.21C190.487 210.792 189.891 211.266 189.218 211.601C188.544 211.936 187.807 212.126 187.055 212.156C186.303 212.187 185.553 212.059 184.854 211.78C184.155 211.5 183.523 211.077 182.999 210.536C182.893 210.427 182.792 210.315 182.697 210.199C181.985 209.323 181.569 208.244 181.506 207.117C181.444 205.99 181.74 204.872 182.351 203.923Z" fill="#FFB7B7"/>
<path d="M224.682 338.502L218.694 338.502L215.845 315.41L224.683 315.411L224.682 338.502Z" fill="#FFB7B7"/>
<path d="M226.209 344.305L206.9 344.305V344.061C206.9 342.068 207.692 340.157 209.101 338.748C210.511 337.339 212.422 336.547 214.416 336.547H214.416L226.21 336.548L226.209 344.305Z" fill="#2F2E41"/>
<path d="M266.528 333.075L260.86 335.007L250.706 314.071L259.072 311.219L266.528 333.075Z" fill="#FFB7B7"/>
<path d="M269.848 338.074L251.572 344.305L251.493 344.074C250.85 342.188 250.982 340.124 251.861 338.336C252.74 336.547 254.294 335.181 256.18 334.537L256.181 334.537L267.343 330.731L269.848 338.074Z" fill="#2F2E41"/>
<path d="M231.277 136.599C231.277 136.599 225.316 134.631 221.484 142.502C217.653 150.374 211.692 159.032 211.692 159.032L215.098 159.82C215.098 159.82 215.95 154.31 218.078 153.522L217.227 160.607C217.227 160.607 242.772 168.872 254.267 159.82L253.841 157.065C253.841 157.065 255.544 157.458 255.544 159.82L256.822 158.639C256.822 158.639 255.544 156.277 251.713 153.129C249.198 151.062 248.333 147.131 248.036 144.672C247.801 142.591 246.908 140.639 245.488 139.1C242.941 136.371 238.301 133.472 231.277 136.599Z" fill="#2F2E41"/>
<path d="M233.474 164.1C239.486 164.1 244.36 159.228 244.36 153.217C244.36 147.207 239.486 142.334 233.474 142.334C227.461 142.334 222.587 147.207 222.587 153.217C222.587 159.228 227.461 164.1 233.474 164.1Z" fill="#FFB7B7"/>
<path d="M218.958 173.062L216.979 172.403C216.979 172.403 213.02 174.052 213.02 177.02C213.02 179.988 212.36 191.86 212.36 191.86L221.267 192.85L218.958 173.062Z" fill="#CBCBCB"/>
<path d="M254.385 237.932C253.564 237.013 253.101 235.829 253.079 234.596C253.058 233.364 253.479 232.165 254.268 231.217L248.711 184.695C248.656 183.598 249.04 182.525 249.776 181.71C250.513 180.895 251.543 180.405 252.64 180.349C253.738 180.292 254.813 180.673 255.629 181.408C256.446 182.143 256.937 183.172 256.996 184.269C256.997 184.284 256.997 184.299 256.998 184.314L261.969 230.885C262.149 231.066 262.315 231.26 262.466 231.466C262.865 232.018 263.151 232.642 263.308 233.304C263.466 233.966 263.491 234.652 263.383 235.323C263.275 235.995 263.036 236.639 262.679 237.218C262.322 237.797 261.855 238.3 261.304 238.699C261.246 238.74 261.188 238.78 261.13 238.819C260.491 239.242 259.767 239.518 259.01 239.627C258.252 239.737 257.48 239.677 256.748 239.453C255.834 239.176 255.016 238.649 254.385 237.932Z" fill="#FFB7B7"/>
<path d="M249.296 191.86L258.203 190.871C258.203 190.871 257.544 178.998 257.544 176.03C257.544 173.062 253.585 171.413 253.585 171.413L251.605 172.073L249.296 191.86Z" fill="#CBCBCB"/>
<path d="M220.278 208.333C220.278 208.333 212.69 222.202 212.69 239.021C212.69 255.841 212.03 333.013 212.03 333.013C212.03 333.013 221.927 337.63 227.865 332.023L233.144 246.606L253.927 330.374C253.927 330.374 263.824 332.353 268.442 329.055L259.535 270.681C259.535 270.681 255.906 215.936 246.01 211.978C236.113 208.02 220.278 208.333 220.278 208.333Z" fill="#2F2E41"/>
<path d="M221.71 153.286C225.564 150.498 228.683 147.286 230.747 143.466C230.747 143.466 237.82 151.322 242.142 151.715C246.464 152.108 242.535 142.288 242.535 142.288L234.676 140.324L227.211 141.109L221.317 145.037L221.71 153.286Z" fill="#2F2E41"/>
<path d="M244.36 169.434C244.36 169.434 244.674 169.266 225.887 169.95L218.024 172.115L216.979 172.403C216.979 172.403 217.969 192.19 220.608 195.818C223.247 199.446 222.587 201.425 221.927 201.754C221.268 202.084 219.618 201.425 220.608 203.073C221.597 204.722 222.917 203.733 221.597 204.722C220.278 205.712 219.618 209.34 219.618 209.34L248.649 213.297C248.649 213.297 249.638 200.435 252.278 193.839C254.917 187.243 255.576 184.605 255.576 184.605L253.597 171.413L244.36 169.434Z" fill="#CBCBCB"/>
<path d="M189.167 113.18H187.497V67.4611C187.497 60.4432 184.709 53.7127 179.745 48.7503C174.781 43.7879 168.048 41 161.028 41L64.1364 41C57.1164 41 50.3838 43.7878 45.4199 48.7502C40.456 53.7126 37.6673 60.4431 37.6672 67.461V318.281C37.6672 325.299 40.4559 332.03 45.4198 336.992C50.3837 341.954 57.1162 344.742 64.1363 344.742H161.028C164.504 344.742 167.946 344.058 171.157 342.728C174.369 341.398 177.287 339.449 179.745 336.992C182.203 334.535 184.152 331.618 185.482 328.407C186.813 325.197 187.497 321.756 187.497 318.281V145.724H189.167L189.167 113.18Z" fill="#3F3D56"/>
<path d="M181.864 67.6471V318.098C181.866 320.691 181.358 323.259 180.367 325.655C179.377 328.052 177.924 330.229 176.092 332.064C174.26 333.899 172.084 335.356 169.688 336.35C167.293 337.344 164.725 337.857 162.132 337.86H64.7394C59.5004 337.863 54.4746 335.786 50.7674 332.086C47.0603 328.385 44.9756 323.363 44.9719 318.126V67.6471C44.9701 65.0538 45.4792 62.4855 46.4702 60.0889C47.4612 57.6923 48.9147 55.5143 50.7477 53.6793C52.5807 51.8443 54.7573 50.3881 57.1533 49.394C59.5492 48.3999 62.1175 47.8873 64.7116 47.8855H76.5496C75.968 49.311 75.746 50.8576 75.9032 52.3891C76.0604 53.9206 76.5919 55.3899 77.451 56.6676C78.3101 57.9453 79.4703 58.9922 80.8295 59.716C82.1887 60.4398 83.7051 60.8183 85.2451 60.8182H140.755C142.295 60.8183 143.811 60.4398 145.17 59.716C146.529 58.9922 147.69 57.9453 148.549 56.6676C149.408 55.3899 149.939 53.9206 150.096 52.3891C150.254 50.8576 150.032 49.311 149.45 47.8855H162.096C167.334 47.8808 172.36 49.9565 176.067 53.6558C179.774 57.3552 181.859 62.3752 181.864 67.6116L181.864 67.6471Z" fill="white"/>
<path d="M181.864 104.7V96.1697H168.949V49.1053C166.755 48.2955 164.435 47.8824 162.096 47.8854H160.415V96.1697H115.615V60.8181H107.082V96.1697H69.5351V47.8854H64.7394C63.4851 47.8835 62.2334 48.002 61.0017 48.2395V96.1697H44.9719V104.7H61.0017V124.432L44.9721 133.684V143.537L61.0017 134.286V192.994H44.9719V201.525H61.0017V286.406H44.9719V294.937H61.0017V337.506C62.2334 337.743 63.4851 337.862 64.7394 337.86H69.5351V294.937H107.082V337.86H115.615V294.937H160.415V337.86H162.096C164.435 337.863 166.755 337.45 168.949 336.64V294.937H181.864V286.406H168.949V249.297H181.749V240.767H168.949V201.525H181.864V192.994H168.949V140.956H181.864V132.426H168.949V104.7L181.864 104.7ZM95.191 104.7L69.5353 119.51L69.5351 104.7H95.191ZM69.5351 129.359L107.082 107.686V192.994H69.5351V129.359ZM69.5351 286.406V201.525H107.082V286.406H69.5351ZM160.415 286.406H115.615V249.297H160.415V286.406ZM160.415 240.767H115.615V201.525H160.415V240.767ZM160.415 192.994H115.615V140.956H160.415V192.994ZM160.415 132.426H115.615V104.7H160.415V132.426Z" fill="#E5E5E5"/>
<path d="M189.002 132.583C189.002 159.674 139.935 220.024 139.935 220.024C139.935 220.024 90.8685 159.674 90.8685 132.583C90.8685 119.574 96.0381 107.097 105.24 97.8984C114.442 88.6993 126.922 83.5314 139.935 83.5314C152.949 83.5314 165.429 88.6993 174.631 97.8984C183.833 107.097 189.002 119.574 189.002 132.583Z" fill="url(#paint1_linear_208_487)"/>
<path d="M168.949 130.451C168.949 136.187 167.248 141.795 164.06 146.565C160.872 151.335 156.34 155.052 151.039 157.248C145.737 159.443 139.904 160.017 134.276 158.898C128.648 157.779 123.478 155.016 119.42 150.96C115.363 146.904 112.599 141.736 111.48 136.109C110.36 130.483 110.935 124.651 113.131 119.351C115.327 114.051 119.046 109.521 123.817 106.334C128.588 103.147 134.198 101.446 139.936 101.446C143.744 101.444 147.516 102.192 151.035 103.648C154.554 105.103 157.752 107.237 160.446 109.928C163.14 112.619 165.278 115.814 166.737 119.331C168.196 122.847 168.948 126.617 168.949 130.424V130.451Z" fill="white"/>
<path d="M139.835 141.9C145.805 141.9 150.644 137.062 150.644 131.095C150.644 125.127 145.805 120.289 139.835 120.289C133.865 120.289 129.026 125.127 129.026 131.095C129.026 137.062 133.865 141.9 139.835 141.9Z" fill="#FDB218"/>
<path d="M155.522 155.774C150.862 158.736 145.455 160.309 139.933 160.308C134.411 160.308 129.004 158.733 124.345 155.77C125.314 152.384 127.36 149.406 130.173 147.286C132.986 145.166 136.413 144.019 139.935 144.02C143.458 144.02 146.885 145.168 149.697 147.289C152.509 149.409 154.554 152.388 155.522 155.774Z" fill="#FDB218"/>
<path d="M139.935 255.427C147.24 255.427 153.162 249.507 153.162 242.204C153.162 234.901 147.24 228.981 139.935 228.981C132.63 228.981 126.709 234.901 126.709 242.204C126.709 249.507 132.63 255.427 139.935 255.427Z" fill="url(#paint2_linear_208_487)"/>
<path d="M344.573 345H1.53244C1.41928 345 1.31076 344.955 1.23074 344.875C1.15073 344.795 1.10577 344.687 1.10577 344.573C1.10577 344.46 1.15073 344.352 1.23074 344.272C1.31076 344.192 1.41928 344.147 1.53244 344.147H344.573C344.686 344.147 344.795 344.192 344.875 344.272C344.955 344.352 345 344.46 345 344.573C345 344.687 344.955 344.795 344.875 344.875C344.795 344.955 344.686 345 344.573 345Z" fill="#CBCBCB"/>
<defs>
<linearGradient id="paint0_linear_208_487" x1="314.499" y1="325.252" x2="314.499" y2="344.274" gradientUnits="userSpaceOnUse">
<stop stop-color="#FDB218"/>
<stop offset="1" stop-color="#1C1654"/>
</linearGradient>
<linearGradient id="paint1_linear_208_487" x1="139.935" y1="83.5314" x2="139.935" y2="220.024" gradientUnits="userSpaceOnUse">
<stop stop-color="#FDB218"/>
<stop offset="1" stop-color="#1C1654"/>
</linearGradient>
<linearGradient id="paint2_linear_208_487" x1="139.935" y1="228.981" x2="139.935" y2="255.427" gradientUnits="userSpaceOnUse">
<stop stop-color="#FDB218"/>
<stop offset="1" stop-color="#1C1654"/>
</linearGradient>
</defs>
</svg>
