<svg width="300" height="344" viewBox="0 0 300 344" fill="none" xmlns="http://www.w3.org/2000/svg">
<g clip-path="url(#clip0_208_434)">
<path d="M143.968 322.714L143.585 314.084C143.546 314.062 143.506 314.041 143.466 314.02C139.369 311.862 134.674 315.769 135.982 320.224C137.214 324.416 138.041 328.935 140.294 332.604C141.626 334.735 143.418 336.538 145.538 337.879C147.658 339.22 150.052 340.065 152.541 340.352L157.746 343.551C158.46 339.554 158.303 335.449 157.285 331.518C156.266 327.588 154.411 323.926 151.848 320.785C150.392 319.037 148.723 317.48 146.88 316.151C145.633 319.451 143.968 322.714 143.968 322.714Z" fill="#F2F2F2"/>
<path d="M97.3668 235.129C87.3459 224.754 72.8241 218.804 57.5251 218.804L56.935 218.805C46.858 218.809 36.9607 216.126 28.2555 211.03L27.3497 210.5L28.0793 209.745C32.0291 205.643 35.3273 200.955 37.8582 195.846C36.0607 197.528 33.9168 198.794 31.5783 199.552C29.2398 200.311 26.7638 200.544 24.3256 200.235C21.7515 199.927 19.2802 199.038 17.0972 197.634C14.9143 196.23 13.0762 194.348 11.7211 192.13C6.3739 183.42 0 171.061 0 161.646C0.00832368 153.688 1.66807 145.819 4.87346 138.541C8.07885 131.262 12.7596 124.734 18.6172 119.372C22.3256 116.016 25.2877 111.912 27.3103 107.328C29.3329 102.745 30.3707 97.7853 30.3559 92.7724L30.3529 92.059C30.3519 85.4592 31.1553 78.8841 32.7451 72.4801L32.9065 71.8335L33.5693 71.8567C37.8431 72.0027 42.1191 71.6431 46.3092 70.7852C42.3789 70.3013 38.5341 69.2746 34.8836 67.7344L34.1707 67.4449L34.4126 66.7114C51.092 56.3436 88.7422 61.7126 110.596 11.5173C128.316 -29.1842 190.838 47.6481 190.838 92.059C190.838 96.5907 186.371 102.579 189.715 105.574C225.865 137.952 200.922 158.743 193.058 179.664C191.192 184.628 195.238 190.077 195.238 195.447C195.238 196.359 195.214 197.299 195.169 198.243L195.099 199.694L193.894 198.889C191.509 197.321 189.299 195.5 187.301 193.46C189.374 198.249 190.351 203.444 190.16 208.663C189.969 213.882 188.615 218.991 186.197 223.615C182.409 230.793 178.744 235.933 175.304 238.889C164.284 248.356 150.079 253.239 135.592 252.54C121.105 251.841 107.431 245.613 97.3668 235.129Z" fill="#E6E6E6"/>
<path d="M157.89 343.125C158.137 343.125 158.374 343.035 158.56 342.873C158.746 342.711 158.868 342.487 158.903 342.242C158.946 341.935 163.207 311.084 159.38 270.082C155.846 232.215 144.497 177.673 110.498 132.879C110.417 132.772 110.315 132.681 110.199 132.613C110.083 132.545 109.954 132.501 109.821 132.482C109.688 132.464 109.552 132.473 109.422 132.507C109.292 132.542 109.17 132.602 109.063 132.683C108.956 132.765 108.866 132.868 108.798 132.984C108.73 133.101 108.686 133.23 108.668 133.364C108.65 133.498 108.659 133.634 108.694 133.765C108.728 133.895 108.788 134.018 108.87 134.125C142.574 178.532 153.832 232.674 157.341 270.273C161.146 311.037 156.918 341.648 156.875 341.952C156.855 342.098 156.866 342.247 156.907 342.388C156.949 342.529 157.02 342.66 157.116 342.771C157.212 342.882 157.331 342.971 157.465 343.033C157.598 343.094 157.743 343.125 157.89 343.125Z" fill="#3F3D56"/>
<path d="M130.146 196.063C130.362 196.063 130.573 195.995 130.748 195.867C130.923 195.74 131.053 195.56 131.12 195.353C131.187 195.147 131.187 194.925 131.12 194.718C131.053 194.511 130.923 194.331 130.748 194.204C130.625 194.114 118.187 185.117 99.5934 178.282C82.4046 171.964 56.2666 166.237 29.3579 174.835C29.2296 174.876 29.1106 174.941 29.0076 175.028C28.9046 175.115 28.8197 175.222 28.7578 175.342C28.6959 175.462 28.6581 175.593 28.6467 175.727C28.6353 175.862 28.6504 175.998 28.6912 176.126C28.732 176.255 28.7977 176.375 28.8846 176.478C28.9714 176.581 29.0776 176.666 29.1972 176.728C29.3168 176.79 29.4474 176.828 29.5816 176.839C29.7157 176.85 29.8507 176.835 29.9789 176.794C56.3362 168.373 82.0005 174.005 98.8892 180.213C117.218 186.95 129.423 195.779 129.544 195.867C129.719 195.995 129.929 196.063 130.146 196.063Z" fill="#3F3D56"/>
<path d="M177.009 78.8865C177.024 78.6699 176.972 78.4539 176.857 78.2694C176.743 78.085 176.574 77.9415 176.374 77.8596C176.173 77.7777 175.952 77.7616 175.742 77.8136C175.532 77.8656 175.344 77.983 175.205 78.149C175.106 78.2661 165.272 90.0721 157.143 108.198C149.628 124.955 142.056 150.715 148.66 178.278C148.723 178.543 148.889 178.772 149.121 178.914C149.352 179.057 149.631 179.101 149.895 179.037C150.159 178.973 150.387 178.807 150.528 178.574C150.67 178.342 150.714 178.062 150.651 177.797C144.183 150.799 151.627 125.506 159.01 109.042C167.024 91.1749 176.674 79.5892 176.77 79.4742C176.91 79.3086 176.993 79.1028 177.009 78.8865Z" fill="#3F3D56"/>
<path d="M175.623 131.891C176.487 138.888 181.317 144.658 188.34 144.658C191.713 144.658 194.947 143.312 197.332 140.918C199.717 138.524 201.057 135.277 201.057 131.891C201.057 124.84 195.333 119.776 188.34 119.124C180.92 118.432 174.514 122.907 175.623 131.891Z" fill="#2F2E41"/>
<path d="M194.23 337.502L199.073 337.502L201.376 318.749L194.229 318.749L194.23 337.502Z" fill="#FFB6B6"/>
<path d="M194.06 342.574L208.952 342.573V342.384C208.952 340.841 208.341 339.361 207.254 338.269C206.167 337.178 204.693 336.565 203.155 336.565L200.435 334.493L195.359 336.565L194.06 336.565L194.06 342.574Z" fill="#2F2E41"/>
<path d="M175.154 337.502L179.997 337.502L182.301 318.749L175.154 318.749L175.154 337.502Z" fill="#FFB6B6"/>
<path d="M174.984 342.574L189.876 342.573V342.384C189.876 340.841 189.265 339.361 188.178 338.269C187.091 337.178 185.617 336.565 184.08 336.565L181.359 334.493L176.284 336.565L174.984 336.565L174.984 342.574Z" fill="#2F2E41"/>
<path d="M210.895 220.051L214.319 231.836L210.285 281.747C210.285 281.747 212.362 284.867 210.895 284.867C209.428 284.867 207.546 285.559 208.732 287.423C209.917 289.287 205.865 295.977 205.865 295.977L200.135 331.516L192.833 331.407C192.833 331.407 189.12 329.331 191.204 327.232C193.287 325.132 194.754 325.132 192.798 323.168C190.841 321.204 190.841 321.796 190.841 320.272C190.841 318.749 188.881 300.132 193.53 292.991L192.129 263.875L188.83 292.434L182.037 330.534L175.003 330.475C175.003 330.475 171.754 327.332 171.76 325.004C171.766 322.677 173.767 322.484 172.278 321.107C170.788 319.731 170.788 298.585 175.19 286.832C175.19 286.832 177.68 280.264 175.184 278.014C172.688 275.764 175.181 273.189 175.181 273.189C175.181 273.189 179.134 271.754 175.177 267.621C171.221 263.488 175.156 234.256 175.156 234.256C175.156 234.256 170.831 222.456 175.211 217.816C179.592 213.176 210.895 220.051 210.895 220.051Z" fill="#2F2E41"/>
<path d="M149.915 240.355L156.024 225.534L160.837 228.219L157.93 243.295C158.221 244.25 158.241 245.268 157.988 246.234C157.734 247.2 157.217 248.075 156.495 248.762C155.773 249.45 154.875 249.921 153.9 250.124C152.926 250.326 151.915 250.252 150.98 249.909C150.046 249.566 149.225 248.969 148.61 248.183C147.996 247.398 147.611 246.456 147.501 245.463C147.39 244.47 147.557 243.466 147.984 242.564C148.41 241.662 149.079 240.897 149.915 240.355Z" fill="#FFB6B6"/>
<path d="M252.421 123.159L243.126 136.205L239.044 132.496L245.278 118.473C245.21 117.476 245.42 116.48 245.885 115.597C246.35 114.714 247.051 113.979 247.909 113.473C248.768 112.968 249.749 112.714 250.744 112.738C251.739 112.762 252.707 113.065 253.54 113.611C254.372 114.158 255.037 114.927 255.458 115.831C255.88 116.736 256.042 117.741 255.925 118.733C255.809 119.725 255.419 120.665 254.8 121.447C254.181 122.229 253.357 122.822 252.421 123.159Z" fill="#FFB6B6"/>
<path d="M211.818 221.259C217.846 230.647 187.542 242.56 175.914 237.777C173.878 236.94 166.874 234.174 171.662 230.338C176.449 226.503 171.107 225.964 170.98 223.467C170.896 221.798 172.183 218.136 170.84 218.293C169.497 218.45 167.925 216.142 170.85 215.149C173.775 214.155 170.882 213.25 170.907 212.307C171.187 202.017 179.051 185.65 179.051 185.65L164.881 222.014C164.881 222.014 164.985 228.306 163.178 226.383C161.371 224.461 161.503 230.683 161.503 230.683C161.503 230.683 158.816 232.566 160.361 233.613C161.906 234.661 158.697 237.882 158.697 237.882L151.211 237.345C151.211 237.345 151.328 231.762 152.606 230.527C153.885 229.292 153.257 227.349 153.257 227.349C153.257 227.349 156.585 224.392 154.354 221.99C151.484 218.901 161.947 166.734 165.557 167.251C166.068 164.756 167.255 162.453 168.989 160.594C170.722 158.735 172.934 157.393 175.379 156.717L183.465 154.482L184.901 148.763H196.287L198.27 152.521L206.926 156.442C208.557 154.133 209.775 151.699 216.452 150.91C216.452 150.91 234.443 134.477 233.565 133.194C232.686 131.91 235.475 128.906 235.475 128.906C235.475 128.906 237.857 128.124 236.513 127.706C235.169 127.288 237.709 126.322 237.709 126.322C237.709 126.322 240.062 125.701 238.952 124.884C237.843 124.067 242.656 123.53 242.656 123.53L248.9 128.645L247.638 130.794C247.638 130.794 248.408 133.719 247.403 132.651C246.399 131.583 246.21 134.683 246.21 134.683C246.21 134.683 245.697 138.077 242.656 139.099C239.614 140.122 237.308 149.836 237.308 149.836C230.135 159.199 221.67 166.503 211.639 171.311C215.549 175.816 211.818 221.259 211.818 221.259Z" fill="url(#paint0_linear_208_434)"/>
<path d="M189.746 145.416C195.974 145.416 201.023 140.347 201.023 134.095C201.023 127.842 195.974 122.773 189.746 122.773C183.518 122.773 178.469 127.842 178.469 134.095C178.469 140.347 183.518 145.416 189.746 145.416Z" fill="#FFB6B6"/>
<path d="M178.069 135.328C178.426 137.788 180.514 141.22 180.025 141.22C179.536 141.22 176.058 131.079 179.536 130.418C182.058 129.938 182.622 130.359 184.98 129.332L184.647 129.647C186.207 130.786 188.379 130.084 190.16 129.342C191.945 128.606 194.112 127.903 195.677 129.038C196.66 129.75 197.076 130.987 197.687 132.038C198.298 133.094 199.428 134.09 200.592 133.766C201.527 133.506 202.065 132.455 202.06 131.483C202.055 130.511 200.794 129.586 201.218 128.714C202.477 126.129 201.345 124.367 198.602 123.15C197.604 122.998 196.606 122.843 195.608 122.684C196.131 121.957 196.765 121.317 197.486 120.788C197.182 120.004 196.654 119.326 195.97 118.839C195.173 118.363 194.185 118.397 193.26 118.446C191.196 118.554 189.134 118.662 187.073 118.77C185.547 118.849 183.967 118.942 182.603 119.644C180.901 120.523 179.785 122.237 178.973 123.98C177.154 127.899 177.442 131.051 178.069 135.328Z" fill="#2F2E41"/>
<path d="M131.157 343.849L242.064 344C242.219 344 242.367 343.938 242.476 343.829C242.585 343.719 242.646 343.57 242.646 343.415C242.646 343.26 242.585 343.112 242.476 343.002C242.367 342.892 242.219 342.831 242.064 342.831L131.157 342.68C131.003 342.68 130.855 342.741 130.746 342.851C130.636 342.961 130.575 343.109 130.575 343.264C130.575 343.42 130.636 343.568 130.746 343.678C130.855 343.788 131.003 343.849 131.157 343.849Z" fill="#CACACA"/>
<path d="M91.0451 292.884C91.2495 291.473 89.7777 290.09 87.7577 289.795C85.7377 289.5 83.9344 290.405 83.7299 291.815C83.5255 293.226 84.9973 294.609 87.0173 294.904C89.0373 295.199 90.8406 294.295 91.0451 292.884Z" fill="#E6E6E6"/>
<path d="M115.096 290.528C115.3 289.117 113.828 287.734 111.808 287.439C109.788 287.144 107.985 288.049 107.78 289.46C107.576 290.87 109.048 292.253 111.068 292.548C113.088 292.843 114.891 291.939 115.096 290.528Z" fill="#3F3D56"/>
<path d="M84.4594 273.337C84.6638 271.926 83.192 270.543 81.172 270.248C79.152 269.953 77.3487 270.858 77.1442 272.268C76.9398 273.679 78.4116 275.062 80.4316 275.357C82.4516 275.652 84.2549 274.748 84.4594 273.337Z" fill="#FF6584"/>
<path d="M74.0088 265.33C74.0185 264.035 73.2989 262.98 72.4015 262.973C71.5041 262.966 70.7686 264.01 70.7589 265.305C70.7491 266.6 71.4687 267.656 72.3662 267.663C73.2636 267.67 73.999 266.625 74.0088 265.33Z" fill="#E6E6E6"/>
<path d="M70.4648 250.417C70.4746 249.121 69.755 248.066 68.8575 248.059C67.9601 248.052 67.2247 249.097 67.2149 250.392C67.2052 251.687 67.9248 252.742 68.8222 252.749C69.7196 252.756 70.455 251.712 70.4648 250.417Z" fill="#3F3D56"/>
<path d="M98.0241 276.663C98.0338 275.368 97.3142 274.313 96.4168 274.306C95.5194 274.299 94.7839 275.343 94.7742 276.639C94.7644 277.934 95.4841 278.989 96.3815 278.996C97.2789 279.003 98.0143 277.958 98.0241 276.663Z" fill="#E6E6E6"/>
<path d="M86.4018 282.489C86.4116 281.194 85.692 280.138 84.7945 280.132C83.8971 280.125 83.1617 281.169 83.1519 282.464C83.1422 283.759 83.8618 284.815 84.7592 284.822C85.6566 284.828 86.3921 283.784 86.4018 282.489Z" fill="#FF6584"/>
<path d="M102.58 293.256C102.59 291.961 101.871 290.906 100.973 290.899C100.076 290.892 99.3403 291.936 99.3305 293.232C99.3208 294.527 100.04 295.582 100.938 295.589C101.835 295.596 102.571 294.551 102.58 293.256Z" fill="#3F3D56"/>
<path d="M275.931 217.265C276.135 215.854 274.663 214.471 272.643 214.176C270.623 213.881 268.82 214.785 268.615 216.196C268.411 217.607 269.883 218.99 271.903 219.285C273.923 219.58 275.726 218.675 275.931 217.265Z" fill="#E6E6E6"/>
<path d="M299.981 214.909C300.186 213.498 298.714 212.115 296.694 211.82C294.674 211.525 292.87 212.429 292.666 213.84C292.461 215.251 293.933 216.634 295.953 216.929C297.973 217.224 299.777 216.319 299.981 214.909Z" fill="#3F3D56"/>
<path d="M269.344 197.717C269.549 196.307 268.077 194.924 266.057 194.629C264.037 194.334 262.234 195.238 262.029 196.649C261.825 198.06 263.297 199.443 265.317 199.738C267.337 200.033 269.14 199.128 269.344 197.717Z" fill="#FF6584"/>
<path d="M258.894 189.711C258.904 188.416 258.184 187.36 257.287 187.353C256.39 187.346 255.654 188.391 255.644 189.686C255.635 190.981 256.354 192.037 257.252 192.043C258.149 192.05 258.885 191.006 258.894 189.711Z" fill="#E6E6E6"/>
<path d="M255.35 174.797C255.36 173.502 254.64 172.447 253.743 172.44C252.846 172.433 252.11 173.477 252.1 174.773C252.091 176.068 252.81 177.123 253.708 177.13C254.605 177.137 255.34 176.092 255.35 174.797Z" fill="#3F3D56"/>
<path d="M282.909 201.044C282.919 199.749 282.2 198.693 281.302 198.687C280.405 198.68 279.669 199.724 279.66 201.019C279.65 202.314 280.369 203.37 281.267 203.377C282.164 203.383 282.9 202.339 282.909 201.044Z" fill="#E6E6E6"/>
<path d="M271.287 206.87C271.297 205.574 270.577 204.519 269.68 204.512C268.783 204.505 268.047 205.55 268.037 206.845C268.028 208.14 268.747 209.195 269.645 209.202C270.542 209.209 271.277 208.165 271.287 206.87Z" fill="#FF6584"/>
<path d="M287.466 217.637C287.476 216.342 286.756 215.286 285.859 215.279C284.961 215.273 284.226 216.317 284.216 217.612C284.206 218.907 284.926 219.963 285.823 219.969C286.721 219.976 287.456 218.932 287.466 217.637Z" fill="#3F3D56"/>
<path d="M186.423 77.3198C186.627 75.909 185.155 74.5262 183.135 74.2312C181.115 73.9361 179.312 74.8405 179.107 76.2513C178.903 77.662 180.375 79.0449 182.395 79.3399C184.415 79.635 186.218 78.7305 186.423 77.3198Z" fill="white"/>
<path d="M210.473 74.9637C210.678 73.553 209.206 72.1702 207.186 71.8751C205.166 71.58 203.362 72.4845 203.158 73.8952C202.953 75.306 204.425 76.6888 206.445 76.9838C208.465 77.2789 210.269 76.3745 210.473 74.9637Z" fill="#3F3D56"/>
<path d="M179.837 57.7725C180.041 56.3618 178.569 54.979 176.549 54.6839C174.529 54.3889 172.726 55.2933 172.522 56.704C172.317 58.1148 173.789 59.4976 175.809 59.7927C177.829 60.0877 179.632 59.1833 179.837 57.7725Z" fill="#FF6584"/>
<path d="M169.386 49.7657C169.396 48.4706 168.676 47.4152 167.779 47.4083C166.881 47.4015 166.146 48.4459 166.136 49.741C166.127 51.0362 166.846 52.0916 167.744 52.0984C168.641 52.1052 169.376 51.0608 169.386 49.7657Z" fill="#E6E6E6"/>
<path d="M165.842 34.8523C165.852 33.5571 165.132 32.5017 164.235 32.4949C163.337 32.4881 162.602 33.5325 162.592 34.8276C162.583 36.1227 163.302 37.1781 164.2 37.1849C165.097 37.1918 165.832 36.1474 165.842 34.8523Z" fill="#3F3D56"/>
<path d="M193.401 61.099C193.411 59.8038 192.692 58.7484 191.794 58.7416C190.897 58.7348 190.161 59.7792 190.152 61.0743C190.142 62.3694 190.861 63.4248 191.759 63.4316C192.656 63.4385 193.392 62.3941 193.401 61.099Z" fill="#E6E6E6"/>
<path d="M181.779 66.9246C181.789 65.6295 181.069 64.5741 180.172 64.5673C179.275 64.5605 178.539 65.6048 178.529 66.9C178.52 68.1951 179.239 69.2505 180.137 69.2573C181.034 69.2641 181.77 68.2198 181.779 66.9246Z" fill="#FF6584"/>
<path d="M197.958 77.6919C197.968 76.3967 197.248 75.3413 196.351 75.3345C195.453 75.3277 194.718 76.3721 194.708 77.6672C194.698 78.9623 195.418 80.0177 196.315 80.0245C197.213 80.0314 197.948 78.987 197.958 77.6919Z" fill="#3F3D56"/>
</g>
<defs>
<linearGradient id="paint0_linear_208_434" x1="200.055" y1="123.53" x2="200.055" y2="238.87" gradientUnits="userSpaceOnUse">
<stop stop-color="#FDB218"/>
<stop offset="1" stop-color="#1C1654"/>
</linearGradient>
<clipPath id="clip0_208_434">
<rect width="300" height="344" fill="white"/>
</clipPath>
</defs>
</svg>
