<svg width="16" height="20" viewBox="0 0 16 20" fill="none" xmlns="http://www.w3.org/2000/svg">
<path d="M8.75928 19.5506C10.7632 17.0363 15.3335 10.9424 15.3335 7.51946C15.3335 3.36809 11.9741 0 7.8335 0C3.69287 0 0.333496 3.36809 0.333496 7.51946C0.333496 10.9424 4.90381 17.0363 6.90771 19.5506C7.38818 20.1498 8.27881 20.1498 8.75928 19.5506ZM7.8335 5.01297C8.49654 5.01297 9.13242 5.27705 9.60126 5.74711C10.0701 6.21716 10.3335 6.8547 10.3335 7.51946C10.3335 8.18422 10.0701 8.82176 9.60126 9.29181C9.13242 9.76187 8.49654 10.0259 7.8335 10.0259C7.17045 10.0259 6.53457 9.76187 6.06573 9.29181C5.59689 8.82176 5.3335 8.18422 5.3335 7.51946C5.3335 6.8547 5.59689 6.21716 6.06573 5.74711C6.53457 5.27705 7.17045 5.01297 7.8335 5.01297Z" fill="#FDB218"/>
</svg>
