<svg width="3854" height="3476" viewBox="0 0 3854 3476" fill="none" xmlns="http://www.w3.org/2000/svg">
<g clip-path="url(#clip0_632_66)">
<path d="M728.343 1195.33C726.591 1191.27 721.882 1189.4 717.826 1191.16C713.77 1192.91 711.904 1197.62 713.657 1201.67L728.343 1195.33ZM976 1788.5L978.836 1795.98C980.879 1795.21 982.516 1793.63 983.368 1791.62C984.219 1789.6 984.21 1787.33 983.343 1785.33L976 1788.5ZM732 1881L724.596 1884.03C726.238 1888.04 730.78 1890.02 734.836 1888.48L732 1881ZM460.917 1196.5C459.262 1192.41 454.599 1190.43 450.503 1192.08C446.406 1193.74 444.427 1198.4 446.083 1202.5L460.917 1196.5ZM483 1272.5L475.583 1275.5L475.589 1275.51L475.596 1275.53L483 1272.5ZM520 1255L523.42 1262.23C527.197 1260.45 528.963 1256.06 527.476 1252.15L520 1255ZM523.476 1241.65C521.903 1237.52 517.281 1235.45 513.152 1237.02C509.023 1238.6 506.951 1243.22 508.524 1247.35L523.476 1241.65ZM713.657 1201.67L968.657 1791.67L983.343 1785.33L728.343 1195.33L713.657 1201.67ZM973.164 1781.02L729.164 1873.52L734.836 1888.48L978.836 1795.98L973.164 1781.02ZM739.404 1877.97L490.404 1269.47L475.596 1275.53L724.596 1884.03L739.404 1877.97ZM490.417 1269.5L460.917 1196.5L446.083 1202.5L475.583 1275.5L490.417 1269.5ZM486.42 1279.73L523.42 1262.23L516.58 1247.77L479.58 1265.27L486.42 1279.73ZM527.476 1252.15L523.476 1241.65L508.524 1247.35L512.524 1257.85L527.476 1252.15Z" fill="#EFEFEF"/>
<path d="M796.346 1192.33C794.597 1188.28 789.89 1186.4 785.833 1188.15C781.775 1189.9 779.904 1194.61 781.654 1198.67L796.346 1192.33ZM1035.5 1767L1028.16 1770.17C1029.85 1774.1 1034.34 1776 1038.35 1774.48L1035.5 1767ZM1479.5 1598L1482.35 1605.48L1482.38 1605.46L1482.42 1605.45L1479.5 1598ZM1537 1575.5L1539.92 1582.95C1539.97 1582.93 1540.03 1582.9 1540.09 1582.88L1537 1575.5ZM1496.5 1466.5L1504 1463.71C1503.23 1461.64 1501.64 1459.98 1499.6 1459.12L1496.5 1466.5ZM1365.5 1411.5L1368.6 1404.12L1365.57 1402.85L1362.52 1404.08L1365.5 1411.5ZM1977.09 1399.88C1981.17 1398.17 1983.09 1393.49 1981.38 1389.41C1979.67 1385.33 1974.99 1383.41 1970.91 1385.12L1977.09 1399.88ZM1166 1434.71C1164.46 1430.57 1159.85 1428.46 1155.71 1430C1151.57 1431.54 1149.46 1436.15 1151 1440.29L1166 1434.71ZM1468.06 1540.39C1466.62 1536.21 1462.06 1534 1457.89 1535.44C1453.71 1536.88 1451.5 1541.44 1452.94 1545.61L1468.06 1540.39ZM1038.35 1774.48L1482.35 1605.48L1476.65 1590.52L1032.65 1759.52L1038.35 1774.48ZM1482.42 1605.45L1539.92 1582.95L1534.08 1568.05L1476.58 1590.55L1482.42 1605.45ZM1544.5 1572.71L1504 1463.71L1489 1469.29L1529.5 1578.29L1544.5 1572.71ZM1499.6 1459.12L1368.6 1404.12L1362.4 1418.88L1493.4 1473.88L1499.6 1459.12ZM781.654 1198.67L946.137 1580.17L960.83 1573.83L796.346 1192.33L781.654 1198.67ZM946.137 1580.17L1028.16 1770.17L1042.84 1763.83L960.828 1573.83L946.137 1580.17ZM1540.09 1582.88L1977.09 1399.88L1970.91 1385.12L1533.91 1568.12L1540.09 1582.88ZM1362.52 1404.08L1174.02 1479.79L1179.98 1494.64L1368.48 1418.92L1362.52 1404.08ZM1174.02 1479.79L950.501 1569.58L956.465 1584.42L1179.98 1494.64L1174.02 1479.79ZM1184.5 1484.43L1166 1434.71L1151 1440.29L1169.5 1490.01L1184.5 1484.43ZM1487.06 1595.39L1468.06 1540.39L1452.94 1545.61L1471.94 1600.61L1487.06 1595.39Z" fill="#EFEFEF"/>
<path d="M854 2364L688 1940.5L436.395 1326.5M436.395 1326.5L390.5 1214.5M436.395 1326.5L374.5 1353.5" stroke="#EFEFEF" stroke-width="16" stroke-linecap="round"/>
<path d="M3730 1754.5L3375.5 1786L3368 1695.5" stroke="#EFEFEF" stroke-width="16" stroke-linecap="round"/>
<path d="M1735 2932C1727.5 2819 1797.83 2730.84 1812 2675C1817.16 2660.8 1822.39 2637.4 1818 2606.5L1639.84 2133M1639.84 2133L1591.67 2005M1639.84 2133L1598.5 2149M1591.67 2005L1077.5 2228.5M1591.67 2005L1528.84 1838M1528.84 1838L1466 1671L756 1941L912.5 2337M1528.84 1838L1493.5 1853" stroke="#EFEFEF" stroke-width="16" stroke-linecap="round" stroke-linejoin="round"/>
<path d="M2225 2382L2033 2459.5M2033 2459.5L1856.5 2530.5L1987.13 2867M2033 2459.5L2197.5 2877M1987.13 2867L2014.5 2937.5L2197.5 2877M1987.13 2867C1984.23 2867.8 1892.83 2905.17 1847.5 2924.5M2197.5 2877L2219.5 2935" stroke="#EFEFEF" stroke-width="16" stroke-linecap="round" stroke-linejoin="round"/>
<path d="M2266 2295.5L2246 2305L1835 2470.5L1636.5 1945C1733.5 1899 1722 1719 1562 1738.5L1527 1648L2214.5 1363L2273.49 1722M2266 2295.5L2360.5 2251.5L2273.49 1722M2266 2295.5L2082.09 1813.5M2273.49 1722L2242.5 1736.82M2082.09 1813.5L2036.5 1694L1903.5 1753.5M2082.09 1813.5L2242.5 1736.82M2242.5 1736.82L2228.5 1700L2214 1706L2100.5 1410.26" stroke="#EFEFEF" stroke-width="16" stroke-linecap="round" stroke-linejoin="round"/>
<path d="M2320 1608.5C2556.88 1676.66 2635.53 1757.98 2703 1973L2844.5 1950.5" stroke="#EFEFEF" stroke-width="16" stroke-linecap="round"/>
<path d="M2377 1964.5L2387.5 2022L2461.5 2009.5" stroke="#EFEFEF" stroke-width="16" stroke-linecap="round" stroke-linejoin="round"/>
<path d="M3141.5 1968.26L2683 2036.97L2398 2081.5L2410.83 2163M3141.5 1968.26L3230 1955L3254.5 1970L3495 1962L3517.5 1929L3793.5 1904.5M3141.5 1968.26L3152.56 2043.5M2410.83 2163L2430.5 2288L2285 2357L2342.5 2665.5L2312 2699.5L2398.5 2957M2410.83 2163L2436.5 2158.5M3152.56 2043.5L3178.5 2220M3152.56 2043.5L3143 2045.5" stroke="#EFEFEF" stroke-width="16" stroke-linecap="round" stroke-linejoin="round"/>
<path d="M2571.5 1990L2639.5 1982C2589.24 1814.51 2521.45 1734.76 2331 1676.5L2362.5 1883" stroke="#EFEFEF" stroke-width="16" stroke-linecap="round" stroke-linejoin="round"/>
<path d="M1843.45 2591.05L1866.51 2584.4L1866.35 2583.84L1866.16 2583.28L1843.45 2591.05ZM1826.14 3176.9C1831.61 3188.98 1845.83 3194.33 1857.9 3188.86C1869.98 3183.39 1875.33 3169.17 1869.86 3157.1L1826.14 3176.9ZM1774.29 2849L1751.29 2842.16L1751.04 2843L1750.85 2843.86L1774.29 2849ZM1543.24 1786.62L1520.75 1795V1795.01V1795.02L1543.24 1786.62ZM1595.42 1926.25L1572.94 1934.65L1572.95 1934.69L1572.96 1934.72L1595.42 1926.25ZM3214.71 1719.93C3213.75 1706.71 3202.26 1696.77 3189.04 1697.73C3175.82 1698.68 3165.88 1710.17 3166.83 1723.39L3214.71 1719.93ZM369.245 1014.47C364.228 1002.2 350.215 996.325 337.947 1001.34C325.678 1006.36 319.799 1020.37 324.816 1032.64L369.245 1014.47ZM990.748 2669.99C995.713 2682.28 1009.7 2688.22 1021.99 2683.25C1034.28 2678.29 1040.22 2664.3 1035.25 2652.01L990.748 2669.99ZM2282.39 2812.43C2285.48 2825.31 2298.44 2833.25 2311.33 2830.15C2324.22 2827.06 2332.15 2814.1 2329.06 2801.21L2282.39 2812.43ZM1018.56 1806.94L1027.05 1829.39H1027.06L1027.07 1829.38L1018.56 1806.94ZM746.84 1179.08L737.482 1156.98C731.591 1159.48 726.939 1164.22 724.561 1170.16C722.182 1176.1 722.273 1182.74 724.815 1188.62L746.84 1179.08ZM961.858 1114.1C974.064 1108.93 979.769 1094.85 974.6 1082.64C969.432 1070.44 955.348 1064.73 943.142 1069.9L961.858 1114.1ZM1820.39 2597.69C1826.58 2619.2 1827.78 2635.56 1826.18 2649.89C1824.56 2664.39 1819.93 2678.24 1812.56 2694.89C1798.06 2727.67 1772.23 2771.71 1751.29 2842.16L1797.3 2855.84C1817.09 2789.24 1839.66 2752.27 1856.46 2714.32C1864.74 2695.61 1871.49 2676.66 1873.88 2655.21C1876.29 2633.59 1874.13 2610.85 1866.51 2584.4L1820.39 2597.69ZM1750.85 2843.86C1738.36 2900.75 1747.87 2962.48 1764.51 3019.61C1781.22 3077 1805.95 3132.34 1826.14 3176.9L1869.86 3157.1C1849.6 3112.36 1826.23 3059.89 1810.59 3006.19C1794.88 2952.23 1787.75 2899.61 1797.73 2854.15L1750.85 2843.86ZM1462.43 1638.45L1520.75 1795L1565.73 1778.24L1507.41 1621.69L1462.43 1638.45ZM1520.75 1795.02L1572.94 1934.65L1617.9 1917.85L1565.72 1778.22L1520.75 1795.02ZM1601.3 1949.52C1643.24 1938.91 1669.27 1915.61 1682.1 1887.75C1694.45 1860.94 1693.51 1832.18 1686.33 1811.15L1640.91 1826.68C1644.56 1837.36 1645.15 1853.25 1638.5 1867.67C1632.34 1881.05 1618.85 1895.57 1589.53 1902.98L1601.3 1949.52ZM1686.33 1811.15C1676.83 1783.39 1655.26 1760.05 1626.37 1749.99C1596.82 1739.7 1562.44 1744.22 1529.61 1766.87L1556.86 1806.38C1578.73 1791.3 1597.26 1790.68 1610.58 1795.32C1624.57 1800.19 1635.84 1811.87 1640.91 1826.68L1686.33 1811.15ZM1484.92 1630.07C1494.14 1652.23 1494.15 1652.22 1494.15 1652.22C1494.16 1652.22 1494.17 1652.22 1494.18 1652.21C1494.2 1652.2 1494.23 1652.19 1494.28 1652.17C1494.37 1652.13 1494.51 1652.07 1494.69 1652C1495.05 1651.85 1495.58 1651.63 1496.29 1651.33C1497.71 1650.74 1499.82 1649.86 1502.57 1648.72C1508.06 1646.43 1516.12 1643.07 1526.38 1638.8C1546.9 1630.26 1576.22 1618.07 1611.41 1603.43C1681.79 1574.17 1775.67 1535.18 1869.64 1496.25C1963.63 1457.31 2057.68 1418.45 2128.45 1389.46C2163.84 1374.96 2193.35 1362.95 2214.09 1354.63C2224.48 1350.47 2232.58 1347.27 2238.08 1345.16C2240.87 1344.09 2242.8 1343.37 2243.98 1342.96C2244.63 1342.73 2244.73 1342.71 2244.5 1342.78C2244.46 1342.79 2243.78 1342.99 2242.79 1343.18C2242.35 1343.26 2241.13 1343.49 2239.52 1343.56C2238.69 1343.59 2236.63 1343.52 2235.41 1343.39C2233.54 1343.08 2228.78 1341.54 2226.03 1340.1L2250.98 1299.09C2248.21 1297.65 2243.43 1296.11 2241.54 1295.78C2240.29 1295.66 2238.2 1295.59 2237.33 1295.61C2235.65 1295.69 2234.34 1295.93 2233.79 1296.03C2232.56 1296.27 2231.55 1296.55 2231.11 1296.68C2230.06 1296.99 2228.98 1297.35 2228.11 1297.66C2226.25 1298.31 2223.79 1299.23 2220.9 1300.34C2215.04 1302.58 2206.68 1305.89 2196.23 1310.08C2175.31 1318.46 2145.66 1330.53 2110.25 1345.04C2039.4 1374.07 1945.27 1412.96 1851.27 1451.9C1757.27 1490.84 1663.37 1529.85 1592.98 1559.11C1557.78 1573.75 1528.46 1585.95 1507.94 1594.49C1497.68 1598.76 1489.61 1602.12 1484.12 1604.41C1481.37 1605.55 1479.26 1606.43 1477.84 1607.02C1477.13 1607.31 1476.59 1607.54 1476.23 1607.69C1476.05 1607.76 1475.92 1607.82 1475.82 1607.86C1475.78 1607.88 1475.74 1607.89 1475.72 1607.9C1475.71 1607.91 1475.7 1607.91 1475.7 1607.91C1475.69 1607.91 1475.69 1607.92 1484.92 1630.07ZM1572.96 1934.72L1794.05 2520.71L1838.96 2503.76L1617.87 1917.78L1572.96 1934.72ZM1793.8 2520L1820.74 2598.81L1866.16 2583.28L1839.22 2504.47L1793.8 2520ZM2226.03 1340.1C2220.15 1336.52 2217.6 1331.38 2217.54 1331.26C2216.8 1329.93 2216.37 1328.84 2216.2 1328.41C2215.83 1327.46 2215.63 1326.74 2215.6 1326.64C2215.5 1326.29 2215.49 1326.21 2215.59 1326.65C2215.77 1327.41 2216.05 1328.78 2216.45 1330.86C2217.25 1334.95 2218.37 1341.07 2219.8 1349.08C2222.65 1365.06 2226.64 1388.15 2231.48 1416.67C2241.17 1473.69 2254.27 1552.22 2268.52 1638.58L2315.88 1630.76C2301.62 1544.37 2288.51 1465.76 2278.81 1408.63C2273.95 1380.08 2269.94 1356.83 2267.06 1340.66C2265.62 1332.59 2264.44 1326.17 2263.57 1321.69C2263.14 1319.49 2262.75 1317.57 2262.42 1316.09C2262.26 1315.4 2262.04 1314.46 2261.78 1313.52C2261.66 1313.12 2261.39 1312.18 2260.96 1311.07C2260.76 1310.56 2260.3 1309.4 2259.54 1308.02C2259.44 1307.85 2256.87 1302.68 2250.98 1299.09L2226.03 1340.1ZM2337.71 2063.42C2346.87 2120.69 2355.2 2170.63 2361.04 2207.7C2363.94 2226.18 2366.17 2241.06 2367.52 2251.67C2368.2 2257.02 2368.61 2260.95 2368.8 2263.59C2368.89 2264.93 2368.9 2265.58 2368.9 2265.73C2368.89 2266.71 2368.75 2264.19 2369.84 2260.82L2415.49 2275.65C2416.88 2271.38 2416.89 2267.34 2416.9 2266.2C2416.92 2264.23 2416.82 2262.16 2416.68 2260.2C2416.4 2256.23 2415.85 2251.27 2415.13 2245.62C2413.69 2234.25 2411.37 2218.77 2408.45 2200.24C2402.63 2163.27 2394.17 2112.47 2385.1 2055.84L2337.71 2063.42ZM3191.77 1949.66C3196.13 1951.45 3201.56 1952.16 3207.21 1950.65C3212.54 1949.22 3216.18 1946.32 3218.33 1944.1C3222.13 1940.19 3223.58 1936.01 3223.97 1934.9C3225 1931.93 3225.32 1929.19 3225.43 1928.18C3225.74 1925.49 3225.83 1922.34 3225.86 1919.45C3225.93 1913.36 3225.73 1904.93 3225.36 1895.26C3224.63 1875.77 3223.2 1849.75 3221.63 1823.86C3220.05 1797.93 3218.32 1771.95 3216.99 1752.46C3216.32 1742.72 3215.75 1734.59 3215.35 1728.9C3215.15 1726.05 3214.99 1723.81 3214.88 1722.28C3214.82 1721.52 3214.78 1720.93 3214.75 1720.54C3214.74 1720.34 3214.73 1720.19 3214.72 1720.09C3214.71 1720.04 3214.71 1720 3214.71 1719.97C3214.71 1719.96 3214.71 1719.95 3214.71 1719.94C3214.71 1719.94 3214.71 1719.94 3214.71 1719.93C3214.71 1719.93 3214.71 1719.93 3190.77 1721.66C3166.83 1723.39 3166.83 1723.4 3166.83 1723.4C3166.83 1723.41 3166.83 1723.42 3166.83 1723.43C3166.84 1723.46 3166.84 1723.49 3166.84 1723.54C3166.85 1723.64 3166.86 1723.79 3166.87 1723.98C3166.9 1724.37 3166.94 1724.95 3167 1725.71C3167.11 1727.23 3167.27 1729.45 3167.47 1732.28C3167.87 1737.95 3168.43 1746.04 3169.1 1755.74C3170.43 1775.16 3172.15 1801.01 3173.72 1826.77C3175.29 1852.58 3176.69 1878.14 3177.4 1897.05C3177.75 1906.57 3177.92 1914.05 3177.86 1918.93C3177.85 1920.12 3177.83 1921.07 3177.8 1921.78C3177.76 1922.54 3177.73 1922.82 3177.74 1922.77C3177.74 1922.74 3177.77 1922.46 3177.86 1922C3177.93 1921.63 3178.13 1920.57 3178.61 1919.18C3178.88 1918.41 3180.21 1914.47 3183.87 1910.69C3185.95 1908.54 3189.53 1905.69 3194.78 1904.28C3200.36 1902.79 3205.72 1903.5 3210 1905.25L3191.77 1949.66ZM2683.91 2032.29C2802.04 2013.44 2931.49 1992.87 3031.75 1977.16C3081.89 1969.3 3124.69 1962.66 3155.12 1958.07C3170.35 1955.77 3182.41 1953.99 3190.71 1952.83C3194.89 1952.24 3197.98 1951.83 3200.01 1951.59C3201.06 1951.47 3201.6 1951.41 3201.78 1951.4C3201.91 1951.39 3201.6 1951.42 3201.07 1951.43C3200.83 1951.43 3200.15 1951.45 3199.24 1951.39C3198.79 1951.36 3197.99 1951.3 3197.01 1951.14C3196.23 1951.01 3194.2 1950.65 3191.77 1949.66L3210 1905.25C3205.98 1903.6 3202.39 1903.49 3202.29 1903.49C3201.28 1903.42 3200.45 1903.43 3200.03 1903.44C3199.14 1903.46 3198.34 1903.52 3197.85 1903.56C3196.78 1903.65 3195.55 1903.78 3194.32 1903.93C3191.8 1904.23 3188.31 1904.7 3184.05 1905.29C3175.49 1906.49 3163.22 1908.3 3147.96 1910.61C3117.39 1915.22 3074.48 1921.88 3024.32 1929.74C2923.99 1945.46 2794.48 1966.04 2676.35 1984.89L2683.91 2032.29ZM2286.53 1657.98C2405.3 1686.9 2482.16 1722.56 2536.91 1776.1C2591.64 1829.61 2626.91 1903.57 2656.96 2014.85L2703.3 2002.33C2672.36 1887.76 2634.2 1804.09 2570.47 1741.78C2506.76 1679.48 2420.16 1641.11 2297.88 1611.35L2286.53 1657.98ZM2268.52 1638.58C2275.71 1682.11 2281.83 1722.87 2287.97 1764.03C2294.11 1805.15 2300.28 1846.68 2307.56 1891.48L2354.94 1883.79C2347.72 1839.34 2341.59 1798.13 2335.44 1756.94C2329.3 1715.8 2323.14 1674.7 2315.88 1630.76L2268.52 1638.58ZM2307.56 1891.48C2312 1918.89 2317.73 1950.49 2323.22 1980.84C2328.75 2011.33 2334.03 2040.48 2337.71 2063.42L2385.1 2055.84C2381.34 2032.3 2375.95 2002.6 2370.45 1972.28C2364.94 1941.83 2359.3 1910.68 2354.94 1883.79L2307.56 1891.48ZM2361.4 2059.63C2366.01 2083.18 2366.01 2083.18 2366.01 2083.18H2366.02C2366.04 2083.18 2366.05 2083.18 2366.08 2083.17C2366.13 2083.16 2366.21 2083.15 2366.31 2083.13C2366.51 2083.09 2366.81 2083.03 2367.21 2082.95C2368.02 2082.79 2369.21 2082.56 2370.77 2082.26C2373.89 2081.66 2378.46 2080.78 2384.28 2079.67C2395.9 2077.46 2412.47 2074.33 2432.24 2070.69C2471.79 2063.42 2524.04 2054.11 2574.99 2045.95L2567.4 1998.56C2515.94 2006.79 2463.29 2016.17 2423.55 2023.49C2403.67 2027.14 2387 2030.29 2375.29 2032.52C2369.44 2033.64 2364.82 2034.52 2361.67 2035.13C2360.09 2035.44 2358.88 2035.67 2358.06 2035.83C2357.65 2035.91 2357.34 2035.97 2357.13 2036.01C2357.02 2036.03 2356.94 2036.05 2356.89 2036.06C2356.86 2036.06 2356.84 2036.07 2356.83 2036.07C2356.82 2036.07 2356.81 2036.07 2356.81 2036.07C2356.81 2036.07 2356.81 2036.07 2356.8 2036.07C2356.8 2036.07 2356.8 2036.08 2361.4 2059.63ZM2574.99 2045.95C2596.02 2042.59 2609.84 2041.27 2625.2 2039.75C2640.79 2038.21 2657.66 2036.48 2683.91 2032.29L2676.35 1984.89C2651.45 1988.86 2635.65 1990.48 2620.47 1991.98C2605.05 1993.51 2589.98 1994.94 2567.4 1998.56L2574.99 2045.95ZM2311.46 1901.23C2352.53 1961.02 2425.91 2012.95 2565.73 2045.62L2576.66 1998.88C2444.22 1967.93 2383.2 1920.89 2351.03 1874.05L2311.46 1901.23ZM692.179 1931.01L990.748 2669.99L1035.25 2652.01L736.684 1913.02L692.179 1931.01ZM2369.84 2260.82C2371.68 2255.15 2375.18 2251.99 2375.27 2251.91C2376.08 2251.12 2376.62 2250.74 2376.5 2250.83C2376.31 2250.97 2375.48 2251.53 2373.71 2252.57C2370.28 2254.58 2365.11 2257.34 2358.47 2260.7C2345.31 2267.37 2327.78 2275.7 2310.09 2283.92C2292.45 2292.12 2274.86 2300.1 2261.67 2306.05C2255.07 2309.02 2249.59 2311.47 2245.75 2313.18C2243.83 2314.04 2242.33 2314.71 2241.3 2315.16C2240.79 2315.39 2240.4 2315.56 2240.14 2315.68C2240.01 2315.74 2239.91 2315.78 2239.84 2315.81C2239.81 2315.83 2239.79 2315.84 2239.77 2315.84C2239.76 2315.85 2239.76 2315.85 2239.75 2315.85C2239.75 2315.85 2239.75 2315.85 2249.47 2337.8C2259.2 2359.74 2259.2 2359.74 2259.2 2359.74C2259.2 2359.74 2259.2 2359.74 2259.2 2359.73C2259.21 2359.73 2259.22 2359.73 2259.22 2359.73C2259.24 2359.72 2259.27 2359.71 2259.3 2359.69C2259.37 2359.66 2259.48 2359.61 2259.61 2359.55C2259.88 2359.43 2260.28 2359.25 2260.8 2359.02C2261.85 2358.56 2263.37 2357.88 2265.31 2357.02C2269.19 2355.29 2274.73 2352.81 2281.38 2349.81C2294.67 2343.83 2312.44 2335.76 2330.31 2327.45C2348.13 2319.17 2366.26 2310.57 2380.16 2303.52C2387.06 2300.03 2393.27 2296.74 2397.99 2293.97C2400.29 2292.62 2402.73 2291.11 2404.86 2289.55C2405.89 2288.79 2407.36 2287.66 2408.84 2286.21C2409.6 2285.47 2413.51 2281.76 2415.49 2275.65L2369.84 2260.82ZM2240.5 2315.53L1807.54 2489.98L1825.48 2534.5L2258.44 2360.06L2240.5 2315.53ZM2249.47 2337.8C2225.87 2342.14 2225.87 2342.14 2225.87 2342.14C2225.87 2342.15 2225.87 2342.15 2225.87 2342.15C2225.87 2342.16 2225.87 2342.17 2225.88 2342.19C2225.88 2342.22 2225.89 2342.26 2225.9 2342.32C2225.92 2342.44 2225.96 2342.63 2226 2342.87C2226.09 2343.35 2226.22 2344.06 2226.39 2345C2226.74 2346.87 2227.24 2349.61 2227.88 2353.13C2229.17 2360.15 2231.01 2370.23 2233.23 2382.45C2237.66 2406.88 2243.6 2439.85 2249.64 2474C2261.87 2543.22 2274.01 2614.74 2275.38 2632.28L2323.24 2628.54C2321.63 2607.99 2308.85 2533.2 2296.91 2465.64C2290.85 2431.4 2284.9 2398.35 2280.45 2373.87C2278.23 2361.63 2276.39 2351.53 2275.1 2344.49C2274.45 2340.97 2273.95 2338.21 2273.6 2336.33C2273.43 2335.39 2273.3 2334.67 2273.21 2334.19C2273.17 2333.95 2273.13 2333.76 2273.11 2333.64C2273.1 2333.58 2273.09 2333.53 2273.08 2333.5C2273.08 2333.48 2273.08 2333.47 2273.08 2333.46C2273.08 2333.46 2273.08 2333.46 2273.08 2333.45C2273.08 2333.45 2273.08 2333.45 2249.47 2337.8ZM2275.38 2632.28C2276.34 2644.5 2272.37 2654.22 2266.37 2667.24C2261.61 2677.57 2250.39 2698.42 2258.14 2721.1L2303.56 2705.57C2303.23 2704.6 2302.73 2703.02 2309.96 2687.33C2315.96 2674.32 2325.26 2654.4 2323.24 2628.54L2275.38 2632.28ZM2258.14 2721.1C2261.82 2731.85 2267.8 2754.23 2273.06 2774.88C2275.65 2785 2277.98 2794.4 2279.67 2801.27C2280.51 2804.7 2281.19 2807.5 2281.66 2809.43C2281.9 2810.4 2282.08 2811.15 2282.2 2811.66C2282.26 2811.92 2282.31 2812.11 2282.34 2812.24C2282.36 2812.3 2282.37 2812.35 2282.38 2812.38C2282.38 2812.4 2282.38 2812.41 2282.38 2812.42C2282.38 2812.42 2282.39 2812.42 2282.39 2812.43C2282.39 2812.43 2282.39 2812.43 2305.72 2806.82C2329.06 2801.21 2329.06 2801.21 2329.06 2801.21C2329.06 2801.2 2329.05 2801.2 2329.05 2801.19C2329.05 2801.19 2329.05 2801.17 2329.04 2801.15C2329.04 2801.12 2329.02 2801.07 2329.01 2801C2328.97 2800.86 2328.92 2800.66 2328.86 2800.4C2328.73 2799.87 2328.55 2799.1 2328.31 2798.11C2327.83 2796.14 2327.14 2793.29 2326.28 2789.81C2324.57 2782.85 2322.2 2773.31 2319.58 2763.02C2314.43 2742.84 2307.98 2718.48 2303.56 2705.57L2258.14 2721.1ZM1476.4 1607.63L1010.05 1784.5L1027.07 1829.38L1493.43 1652.51L1476.4 1607.63ZM1010.07 1784.5L705.938 1899.57L722.924 1944.46L1027.05 1829.39L1010.07 1784.5ZM1040.59 1797.41L768.866 1169.55L724.815 1188.62L996.533 1816.48L1040.59 1797.41ZM736.646 1912.93L480.717 1287.07L436.288 1305.24L692.217 1931.1L736.646 1912.93ZM480.717 1287.07L369.245 1014.47L324.816 1032.64L436.288 1305.24L480.717 1287.07ZM756.198 1201.18L961.858 1114.1L943.142 1069.9L737.482 1156.98L756.198 1201.18Z" fill="#CDCFD6"/>
<path d="M1857.59 2452.9L1653.65 1925.96L2057.94 1770.73L2256.86 2294.72L1857.59 2452.9Z" fill="#DFE0EC" stroke="#9B91AD"/>
<path d="M2037.5 2490.5L1886.5 2551.5L2029.11 2918.92L2181.62 2860.37L2037.5 2490.5Z" fill="#DFE0EC" stroke="#9B91AD"/>
<path d="M2448.89 2391.96L2327.21 2404.6L2351.63 2649.64L2469.81 2638.08L2448.89 2391.96Z" fill="#DFE0EC" stroke="#9B91AD"/>
<path d="M2472.05 2672.19L2389.5 2679L2411.5 2900.5L2492.71 2892.62L2472.05 2672.19Z" fill="#DFE0EC" stroke="#9B91AD"/>
<path d="M2483.5 2948L2417.5 2950.5L2416.27 2975.17L2185.5 2938L2141 3146.5L2528.5 3231.5L2504.62 2978H2488L2483.5 2948Z" fill="#DFE0EC" stroke="#9B91AD"/>
<path d="M2180.75 2934.77L2147.75 3091.77L2038.75 3072.27C1863.95 3143.18 1829.46 2973.66 1986.52 2909.85L1999.46 2947.69L2080.7 2919.92L2083.41 2927.83L2180.75 2934.77Z" fill="#DFE0EC" stroke="#9B91AD"/>
<path d="M1439.5 1933.5L1064.39 2087.85L1101.49 2176.39L1471 2012L1439.5 1933.5Z" fill="#DFE0EC" stroke="#9B91AD"/>
<path d="M1457.24 1778.85L843.811 2027.58L951.258 2288.62L1065.52 2239.51L1007.54 2102.39L1499 1892L1457.24 1778.85Z" fill="#DFE0EC" stroke="#9B91AD"/>
<path d="M941.15 1896.44L867.286 1907.72L788 1937.5L822.65 2021.34L900.549 1989.75L1043.52 1931.77L1021.78 1878.15L1014.44 1881.13L1006.08 1860.51L937.805 1888.2L941.15 1896.44Z" fill="#DFE0EC" stroke="#9B91AD"/>
<path d="M2603.09 1911.82L2413.67 1797.83L2372.12 1858.16L2379.24 1879.47L2370.6 1894.62C2378.22 1918.58 2473.33 1978.18 2557.71 1992L2572.28 1990.61L2578.81 1977.87L2568.1 1970.92L2603.09 1911.82Z" fill="#DFE0EC" stroke="#9B91AD"/>
<path d="M1423.63 1610.12L1489.36 1471.92L1396.9 1431.93L1380.53 1445.02L1371.6 1461.58L1362.61 1457.81L1341.85 1494.19L1352.59 1499.28L1339.33 1536.94L1352.71 1571.99L1323 1585.5L1344.5 1640.5L1423.63 1610.12Z" fill="#DFE0EC" stroke="#9B91AD"/>
<path d="M1298.13 1522.33L1066.77 1610.66L1070.61 1620.72L1041.06 1632L1054.6 1667.47L1042.23 1672.19L1065.63 1733.51L1269.28 1655.77L1273.39 1666.52L1343.03 1639.94L1298.13 1522.33Z" fill="#DFE0EC" stroke="#9B91AD"/>
<path d="M1250.39 1130.75L1225.32 1140.32L1219.58 1150.35L920.273 1264.61L896.944 1254.8L869.596 1265.24L899.042 1342.37L879.209 1359.96L895.891 1403.65L922.687 1404.31L952.423 1482.2L1076.63 1434.79L1084.9 1456.45L1224.67 1403.09L1216.41 1381.43L1329.59 1338.22L1250.39 1130.75Z" fill="#DFE0EC" stroke="#9B91AD"/>
<path d="M686.657 1249.3L514.726 1323.76L725.546 1837.46L901.194 1760.91L851.845 1635.11L805.049 1653.22L704.327 1409.18L749.847 1386.22L686.657 1249.3Z" fill="#DFE0EC" stroke="#9B91AD"/>
<path d="M813.725 845.656L769.914 863.445L780.78 890.207L651.356 942.758L647.581 933.462L467.914 1006.41L455.79 976.554L405.548 996.954L420.531 1033.86L410.081 1038.1L494.036 1244.87L647.577 1182.52L643.116 1171.54L816.185 1097.33L895.164 1046.23L813.725 845.656Z" fill="#DFE0EC" stroke="#9B91AD"/>
<path d="M316.435 1228.35L113.999 1310.45L236.866 1613.38L438 1534.5L316.435 1228.35Z" fill="#DFE0EC" stroke="#9B91AD"/>
<path d="M534 1576L308.346 1671.68L441.499 2002.5L616.999 1932L534 1721.5L584 1698.5L534 1576Z" fill="#DFE0EC" stroke="#9B91AD"/>
<path d="M613.17 1933.91L463.879 1994.45L584.549 2307.97L739.396 2245.17L613.17 1933.91Z" fill="#EDEDED" stroke="#9B91AD"/>
<path d="M1291.5 475.5L1214 613.5L1475.5 770.5L1561 629L1291.5 475.5Z" fill="#EDEDED" stroke="#9B91AD"/>
<path d="M1717.39 1614.53L1768 1738L2039 1634.5L2101.24 1791.37L2217 1738L2109.5 1458.5L1717.39 1614.53Z" fill="#DFE0EC" stroke="#9B91AD"/>
<path d="M3128.5 2003L2437 2112L2464 2276L3152 2161.5L3128.5 2003Z" fill="#DFE0EC" stroke="#9B91AD"/>
<path d="M3211.5 1634L3354.5 1624L3367.92 1795.18L3692 1766.13L3805 1756L3814.5 1888.5L3703 1899.51L3237.5 1945.5L3211.5 1634Z" fill="#DFE0EC"/>
<path d="M3692 1766.13L3367.92 1795.18L3354.5 1624L3211.5 1634L3237.5 1945.5L3703 1899.51M3692 1766.13L3805 1756L3814.5 1888.5L3703 1899.51M3692 1766.13L3703 1899.51" stroke="#9B91AD"/>
<path d="M3222.5 1988L3163 1998L3188.5 2175L3249.5 2166L3222.5 1988Z" fill="#DFE0EC" stroke="#9B91AD"/>
<path d="M3605 1945L3606.5 1983.5L3815 1970.5L3818.5 1930.5L3605 1945Z" fill="#EDEDED" stroke="#9B91AD"/>
<path d="M2995 2302L3005 2365L3272.5 2314L3263 2251.5L2995 2302Z" fill="#EDEDED" stroke="#9B91AD"/>
<path d="M1115.08 1555.8L1125.02 1582.52L1252.23 1535.18L1242.29 1508.47L1115.08 1555.8Z" fill="#EDEDED" stroke="#9B91AD"/>
<path d="M3637.05 1615.94L3644.31 1714.39L3704.05 1708.44L3696.05 1610.94L3637.05 1615.94Z" fill="#DFE0EC" stroke="#9B91AD"/>
<path d="M3762.95 1693.56L3767.63 1750.01L3827.28 1745.05L3822.6 1688.61L3762.95 1693.56Z" fill="#DFE0EC" stroke="#9B91AD"/>
<path d="M3527 1942.5L3496 1990.5L3601 1984L3599.22 1937.09L3527 1942.5Z" fill="#DFE0EC" stroke="#9B91AD"/>
<path d="M2746.5 2247L2436.64 2293.53L2449.64 2379.53L2758.5 2332L2746.5 2247Z" fill="#DFE0EC" stroke="#9B91AD"/>
<path d="M2760 1967C2732 1978 2677 1969 2688 1905C2635 1756.5 2549 1676 2396.5 1624L2394 1632.5L2322.5 1611L2353 1510.5L2387 1521L2397 1488.5C2638.4 1578.73 2694.44 1625.59 2816 1853L2769.5 1881C2803 1907.5 2788 1956 2760 1967Z" fill="#DFE0EC" stroke="#9B91AD"/>
<path d="M1168.41 2234.45L1559.29 2070.18L1616.5 2220.5L1208.74 2380.25C1208.74 2380.25 1208.15 2381.27 1207.05 2383.01C1248.6 2464.38 1100.36 2474.37 1130.92 2388.89C1130.84 2388.22 1130.76 2387.54 1130.68 2386.85C1122.51 2334.77 1103.74 2328.4 1050.54 2348.73L1021.43 2263.57L1154.9 2204.2L1168.41 2234.45Z" fill="#DFE0EC"/>
<path d="M1208.74 2380.25L1616.5 2220.5L1559.29 2070.18L1168.41 2234.45L1154.9 2204.2L1021.43 2263.57L1050.54 2348.73C1103.74 2328.4 1122.51 2334.77 1130.68 2386.85C1130.76 2387.54 1130.84 2388.22 1130.92 2388.89C1100.36 2474.37 1248.6 2464.38 1207.05 2383.01M1208.74 2380.25C1208.74 2380.25 1208.15 2381.27 1207.05 2383.01M1208.74 2380.25C1208.74 2380.25 1207.71 2381.93 1207.05 2383.01" stroke="#9B91AD"/>
<path d="M1826.98 2956.92C1842.37 2958.51 1855.5 2953.43 1856.3 2945.59C1857.11 2937.75 1845.29 2930.1 1829.9 2928.52C1814.51 2926.93 1801.38 2932.01 1800.58 2939.85C1799.77 2947.7 1811.59 2955.34 1826.98 2956.92Z" fill="#CCCCCC"/>
<path d="M1719.89 2965.65C1732.16 2966.92 1742.77 2961.58 1743.57 2953.74C1744.38 2945.89 1735.09 2938.51 1722.81 2937.25C1710.54 2935.99 1699.93 2941.32 1699.13 2949.16C1698.32 2957.01 1707.62 2964.39 1719.89 2965.65Z" fill="#CCCCCC"/>
<path d="M1730.84 2949.57L1808.9 2942.96" stroke="#CCCCCC" stroke-width="7" stroke-dasharray="7 7"/>
<path d="M1653 1723.5L1745.5 1687L1767 1740L1872.5 1699.5L1922 1821.5L1722 1898.5L1653 1723.5Z" fill="#DFE0EC" stroke="#9B91AD"/>
<path d="M1981.5 3129.5L1982.22 3125.56C1981.86 3125.5 1981.49 3125.48 1981.13 3125.52L1981.5 3129.5ZM801.5 2887.5L798.021 2889.47C798.566 2890.43 799.482 2891.13 800.553 2891.39L801.5 2887.5ZM4 1332.5L0.641295 1330.33C-0.199883 1331.63 -0.214621 1333.3 0.603464 1334.61L4 1332.5ZM210 1014L208.531 1010.28C207.755 1010.59 207.094 1011.13 206.641 1011.83L210 1014ZM843 764L846.887 763.055C846.614 761.931 845.867 760.981 844.84 760.449C843.814 759.916 842.606 759.855 841.531 760.28L843 764ZM886.5 943L882.613 943.945C882.966 945.395 884.097 946.529 885.547 946.885L886.5 943ZM1202.91 623.857H1198.91C1198.91 625.259 1199.65 626.559 1200.85 627.283L1202.91 623.857ZM1251 4.49996L1252.02 0.631296C1249.9 0.0752051 1247.73 1.32271 1247.15 3.43124L1251 4.49996ZM1593.5 94.5L1597.28 95.809C1597.64 94.7564 1597.55 93.5994 1597.03 92.6167C1596.5 91.634 1595.59 90.9144 1594.52 90.6313L1593.5 94.5ZM1460.27 479.221L1456.49 477.912C1455.81 479.859 1456.73 481.999 1458.6 482.858L1460.27 479.221ZM1656.67 569.195L1655.01 572.832C1656.83 573.667 1658.99 573.023 1660.06 571.326L1656.67 569.195ZM1813.41 289.598L1816.73 287.364C1816.08 286.4 1815.04 285.766 1813.89 285.626C1812.73 285.487 1811.57 285.857 1810.72 286.639L1813.41 289.598ZM2097.5 711.5L2101.35 710.411C2101.23 710.004 2101.05 709.617 2100.82 709.266L2097.5 711.5ZM2274.5 1337L2270.65 1338.09C2271.05 1339.48 2272.16 1340.55 2273.57 1340.89L2274.5 1337ZM3176.5 1552.62L3175.57 1556.51C3175.74 1556.56 3175.92 1556.59 3176.09 1556.6L3176.5 1552.62ZM3850 1621.31L3853.99 1621.66C3854.17 1619.48 3852.58 1617.56 3850.41 1617.34L3850 1621.31ZM3819.5 1975L3819.75 1978.99C3821.72 1978.87 3823.31 1977.32 3823.49 1975.34L3819.5 1975ZM3228 1988L3228.1 1984C3226.92 1983.97 3225.79 1984.46 3225 1985.35C3224.22 1986.24 3223.87 1987.42 3224.04 1988.59L3228 1988ZM3277.5 2317.5L3278.24 2321.43C3280.36 2321.03 3281.78 2319.03 3281.46 2316.91L3277.5 2317.5ZM2454 2386.5L2453.89 2382.5C2452.78 2382.53 2451.74 2383.02 2451 2383.85C2450.27 2384.68 2449.91 2385.77 2450.02 2386.87L2454 2386.5ZM381 2109L377.274 2110.45C377.328 2110.59 377.391 2110.73 377.461 2110.86L381 2109ZM1782.5 3126.5L1781.55 3130.39C1783.03 3130.75 1784.58 3130.24 1785.56 3129.07C1786.54 3127.91 1786.77 3126.29 1786.17 3124.9L1782.5 3126.5ZM2995 2371L2995.11 2375L2995.43 2374.99L2995.74 2374.93L2995 2371ZM1708 385.5L1705.31 382.541L1704.26 383.492L1704.05 384.887L1708 385.5ZM1687 521L1690.39 523.13L1690.83 522.43L1690.95 521.613L1687 521ZM1162 325.5L1158.15 324.431L1156.89 328.962L1161.56 329.476L1162 325.5ZM1202.91 330H1206.91V326.416L1203.35 326.024L1202.91 330ZM1460.27 779L1463.77 780.929L1465.63 777.56L1462.33 775.574L1460.27 779ZM1312.5 1047.5L1311.55 1051.38L1314.53 1052.12L1316 1049.43L1312.5 1047.5ZM3496 1995L3495.9 1999H3496.07L3496.25 1998.99L3496 1995ZM2133.5 3161.5L2132.72 3165.42L2136.6 3166.2L2137.42 3162.32L2133.5 3161.5ZM7.3587 1334.67L213.359 1016.17L206.641 1011.83L0.641295 1330.33L7.3587 1334.67ZM211.469 1017.72L844.469 767.72L841.531 760.28L208.531 1010.28L211.469 1017.72ZM839.113 764.945L882.613 943.945L890.387 942.055L846.887 763.055L839.113 764.945ZM1249.98 8.36862L1592.48 98.3687L1594.52 90.6313L1252.02 0.631296L1249.98 8.36862ZM1589.72 93.191L1456.49 477.912L1464.05 480.53L1597.28 95.809L1589.72 93.191ZM1458.6 482.858L1655.01 572.832L1658.34 565.559L1461.93 475.584L1458.6 482.858ZM2093.65 712.589L2270.65 1338.09L2278.35 1335.91L2101.35 710.411L2093.65 712.589ZM3846.01 1620.97L3815.51 1974.66L3823.49 1975.34L3853.99 1621.66L3846.01 1620.97ZM3224.04 1988.59L3273.54 2318.09L3281.46 2316.91L3231.96 1987.41L3224.04 1988.59ZM804.979 2885.53C642.046 2598.47 549.435 2420.31 384.539 2107.14L377.461 2110.86C542.345 2424.02 635.015 2602.29 798.021 2889.47L804.979 2885.53ZM384.726 2107.55C263.791 1797.78 190.758 1625.17 7.39654 1330.39L0.603464 1334.61C183.597 1628.81 256.424 1800.91 377.274 2110.45L384.726 2107.55ZM1783.45 3122.61L802.447 2883.61L800.553 2891.39L1781.55 3130.39L1783.45 3122.61ZM1786.17 3124.9C1759.95 3064.89 1744.57 3022.28 1732.94 2953.83L1725.06 2955.17C1736.82 3024.47 1752.45 3067.72 1778.83 3128.1L1786.17 3124.9ZM1981.13 3125.52C1923.71 3130.85 1880.4 3100.15 1856.14 3061.26C1844.01 3041.8 1836.73 3020.42 1834.87 3000.73C1833.01 2980.99 1836.61 2963.33 1845.73 2950.86L1839.27 2946.14C1828.64 2960.67 1824.93 2980.51 1826.91 3001.49C1828.89 3022.51 1836.62 3045.07 1849.36 3065.49C1874.85 3106.35 1920.79 3139.15 1981.87 3133.48L1981.13 3125.52ZM3276.76 2313.57L2994.26 2367.07L2995.74 2374.93L3278.24 2321.43L3276.76 2313.57ZM2994.89 2367L2453.89 2382.5L2454.11 2390.5L2995.11 2375L2994.89 2367ZM2450.02 2386.87L2529.52 3232.87L2537.48 3232.13L2457.98 2386.13L2450.02 2386.87ZM1710.69 388.459L1816.1 292.556L1810.72 286.639L1705.31 382.541L1710.69 388.459ZM1660.06 571.326L1690.39 523.13L1683.61 518.87L1653.29 567.065L1660.06 571.326ZM1690.95 521.613L1711.95 386.113L1704.05 384.887L1683.05 520.387L1690.95 521.613ZM1247.15 3.43124L1158.15 324.431L1165.85 326.569L1254.85 5.56868L1247.15 3.43124ZM1161.56 329.476L1202.48 333.976L1203.35 326.024L1162.44 321.524L1161.56 329.476ZM1198.91 330V623.857H1206.91V330H1198.91ZM1462.33 775.574L1204.98 620.431L1200.85 627.283L1458.2 782.426L1462.33 775.574ZM885.547 946.885L1311.55 1051.38L1313.45 1043.62L887.453 939.115L885.547 946.885ZM1316 1049.43L1463.77 780.929L1456.76 777.071L1309 1045.57L1316 1049.43ZM1810.09 291.832L2094.18 713.734L2100.82 709.266L1816.73 287.364L1810.09 291.832ZM3819.25 1971.01L3495.75 1991.01L3496.25 1998.99L3819.75 1978.99L3819.25 1971.01ZM3496.1 1991L3228.1 1984L3227.9 1992L3495.9 1999L3496.1 1991ZM3176.09 1556.6L3849.59 1625.29L3850.41 1617.34L3176.91 1548.65L3176.09 1556.6ZM2273.57 1340.89L3175.57 1556.51L3177.43 1548.73L2275.43 1333.11L2273.57 1340.89ZM1980.78 3133.44C2033.82 3143.11 2130.43 3164.96 2132.72 3165.42L2134.28 3157.58C2134.29 3157.58 2134.26 3157.57 2134.18 3157.56C2134.11 3157.54 2134.02 3157.52 2133.9 3157.49C2133.66 3157.44 2133.33 3157.37 2132.91 3157.28C2132.08 3157.09 2130.91 3156.83 2129.44 3156.5C2126.49 3155.85 2122.33 3154.92 2117.23 3153.79C2107.02 3151.52 2093.04 3148.44 2077.47 3145.07C2046.35 3138.32 2008.79 3130.41 1982.22 3125.56L1980.78 3133.44ZM2137.42 3162.32L2151.42 3095.32L2143.58 3093.68L2129.58 3160.68L2137.42 3162.32Z" fill="#CCCCCC"/>
<path d="M1593.5 1542L1559 1465L1691 1411L1726 1486L1593.5 1542Z" fill="#DFE0EC" stroke="#9B91AD"/>
<path d="M214.5 1174L180 1097L312 1043L347 1118L214.5 1174Z" fill="#DFE0EC" stroke="#9B91AD"/>
<path d="M1751.5 1477L1717 1400L1849 1346L1884 1421L1751.5 1477Z" fill="#DFE0EC" stroke="#9B91AD"/>
<path d="M1015.92 2686.88L1061.88 2697.47L1063.23 2738.65L1218.68 2785.77L1225.37 2771.81L1396.31 2822.26L1388.23 2843.97C1471.79 2890.5 1489.93 2922.25 1493.42 2984.52C1385.37 3001.65 1341.66 3000.06 1288.94 2950.55L1006.86 2880.1L1014.17 2834.79C1001.17 2829.54 978.581 2825.63 975.816 2821.76C973.051 2817.89 947.899 2747.01 937.716 2715.83L1015.92 2686.88Z" fill="#EDEDED" stroke="#9B91AD" stroke-linecap="round"/>
<path d="M2232 2388L2043.5 2464L2162.5 2766L2243.5 2721L2272 2620L2232 2388Z" stroke="#9B91AD" stroke-linecap="round"/>
<path d="M2270.5 1756L2100 1836.5L2250 2229L2342.5 2193L2270.5 1756Z" stroke="#9B91AD" stroke-linecap="round"/>
<path d="M2203.5 1456L2137 1480L2173 1575L2236 1551.5L2203.5 1456Z" stroke="#9B91AD" stroke-linecap="round"/>
<path d="M150 2835.5L2480.5 3395" stroke="#CDCFD6" stroke-width="160" stroke-linecap="round"/>
</g>
<defs>
<clipPath id="clip0_632_66">
<rect width="3854" height="3476" fill="white"/>
</clipPath>
</defs>
</svg>
