<svg width="345" height="345" viewBox="0 0 345 345" fill="none" xmlns="http://www.w3.org/2000/svg">
<g clip-path="url(#clip0_208_434)">
<path d="M169.968 323.714L169.585 315.084C169.546 315.062 169.506 315.041 169.466 315.02C165.369 312.862 160.674 316.769 161.982 321.224C163.214 325.416 164.041 329.935 166.294 333.604C167.626 335.735 169.418 337.538 171.538 338.879C173.658 340.22 176.052 341.065 178.541 341.352L183.746 344.551C184.46 340.554 184.303 336.449 183.285 332.518C182.266 328.588 180.411 324.926 177.848 321.785C176.392 320.037 174.723 318.48 172.88 317.151C171.633 320.451 169.968 323.714 169.968 323.714Z" fill="#F2F2F2"/>
<path d="M123.367 236.129C113.346 225.754 98.8241 219.804 83.5251 219.804L82.935 219.805C72.858 219.809 62.9607 217.126 54.2555 212.03L53.3497 211.5L54.0793 210.745C58.0291 206.643 61.3273 201.955 63.8582 196.846C62.0607 198.528 59.9168 199.794 57.5783 200.552C55.2398 201.311 52.7638 201.544 50.3256 201.235C47.7515 200.927 45.2802 200.038 43.0972 198.634C40.9143 197.23 39.0762 195.348 37.7211 193.13C32.3739 184.42 26 172.061 26 162.646C26.0083 154.688 27.6681 146.819 30.8735 139.541C34.0788 132.262 38.7596 125.734 44.6172 120.372C48.3256 117.016 51.2877 112.912 53.3103 108.328C55.3329 103.745 56.3707 98.7853 56.3559 93.7724L56.3529 93.059C56.3519 86.4592 57.1553 79.8841 58.7451 73.4801L58.9065 72.8335L59.5693 72.8567C63.8431 73.0027 68.1191 72.6431 72.3092 71.7852C68.3789 71.3013 64.5341 70.2746 60.8836 68.7344L60.1707 68.4449L60.4126 67.7114C77.092 57.3436 114.742 62.7126 136.596 12.5173C154.316 -28.1842 216.838 48.6481 216.838 93.059C216.838 97.5907 212.371 103.579 215.715 106.574C251.865 138.952 226.922 159.743 219.058 180.664C217.192 185.628 221.238 191.077 221.238 196.447C221.238 197.359 221.214 198.299 221.169 199.243L221.099 200.694L219.894 199.889C217.509 198.321 215.299 196.5 213.301 194.46C215.374 199.249 216.351 204.444 216.16 209.663C215.969 214.882 214.615 219.991 212.197 224.615C208.409 231.793 204.744 236.933 201.304 239.889C190.284 249.356 176.079 254.239 161.592 253.54C147.105 252.841 133.431 246.613 123.367 236.129Z" fill="#E6E6E6"/>
<path d="M183.89 344.125C184.137 344.125 184.374 344.035 184.56 343.873C184.746 343.711 184.868 343.487 184.903 343.242C184.946 342.935 189.207 312.084 185.38 271.082C181.846 233.215 170.497 178.673 136.498 133.879C136.417 133.772 136.315 133.681 136.199 133.613C136.083 133.545 135.954 133.501 135.821 133.482C135.688 133.464 135.552 133.473 135.422 133.507C135.292 133.542 135.17 133.602 135.063 133.683C134.956 133.765 134.866 133.868 134.798 133.984C134.73 134.101 134.686 134.23 134.668 134.364C134.65 134.498 134.659 134.634 134.694 134.765C134.728 134.895 134.788 135.018 134.87 135.125C168.574 179.532 179.832 233.674 183.341 271.273C187.146 312.037 182.918 342.648 182.875 342.952C182.855 343.098 182.866 343.247 182.907 343.388C182.949 343.529 183.02 343.66 183.116 343.771C183.212 343.882 183.331 343.971 183.465 344.033C183.598 344.094 183.743 344.125 183.89 344.125Z" fill="#3F3D56"/>
<path d="M156.146 197.063C156.362 197.063 156.573 196.995 156.748 196.867C156.923 196.74 157.053 196.56 157.12 196.353C157.187 196.147 157.187 195.925 157.12 195.718C157.053 195.511 156.923 195.331 156.748 195.204C156.625 195.114 144.187 186.117 125.593 179.282C108.405 172.964 82.2666 167.237 55.3579 175.835C55.2296 175.876 55.1106 175.941 55.0076 176.028C54.9046 176.115 54.8197 176.222 54.7578 176.342C54.6959 176.462 54.6581 176.593 54.6467 176.727C54.6353 176.862 54.6504 176.998 54.6912 177.126C54.732 177.255 54.7977 177.375 54.8846 177.478C54.9714 177.581 55.0776 177.666 55.1972 177.728C55.3168 177.79 55.4474 177.828 55.5816 177.839C55.7157 177.85 55.8507 177.835 55.9789 177.794C82.3362 169.373 108 175.005 124.889 181.213C143.218 187.95 155.423 196.779 155.544 196.867C155.719 196.995 155.929 197.063 156.146 197.063Z" fill="#3F3D56"/>
<path d="M203.009 79.8865C203.024 79.6699 202.972 79.4539 202.857 79.2694C202.743 79.085 202.574 78.9415 202.374 78.8596C202.173 78.7777 201.952 78.7616 201.742 78.8136C201.532 78.8656 201.344 78.983 201.205 79.149C201.106 79.2661 191.272 91.0721 183.143 109.198C175.628 125.955 168.056 151.715 174.66 179.278C174.723 179.543 174.889 179.772 175.121 179.914C175.352 180.057 175.631 180.101 175.895 180.037C176.159 179.973 176.387 179.807 176.528 179.574C176.67 179.342 176.714 179.062 176.651 178.797C170.183 151.799 177.627 126.506 185.01 110.042C193.024 92.1749 202.674 80.5892 202.77 80.4742C202.91 80.3086 202.993 80.1028 203.009 79.8865Z" fill="#3F3D56"/>
<path d="M201.623 132.891C202.487 139.888 207.317 145.658 214.34 145.658C217.713 145.658 220.947 144.312 223.332 141.918C225.717 139.524 227.057 136.277 227.057 132.891C227.057 125.84 221.333 120.776 214.34 120.124C206.92 119.432 200.514 123.907 201.623 132.891Z" fill="#2F2E41"/>
<path d="M220.23 338.502L225.073 338.502L227.376 319.749L220.229 319.749L220.23 338.502Z" fill="#FFB6B6"/>
<path d="M220.06 343.574L234.952 343.573V343.384C234.952 341.841 234.341 340.361 233.254 339.269C232.167 338.178 230.693 337.565 229.155 337.565L226.435 335.493L221.359 337.565L220.06 337.565L220.06 343.574Z" fill="#2F2E41"/>
<path d="M201.154 338.502L205.997 338.502L208.301 319.749L201.154 319.749L201.154 338.502Z" fill="#FFB6B6"/>
<path d="M200.984 343.574L215.876 343.573V343.384C215.876 341.841 215.265 340.361 214.178 339.269C213.091 338.178 211.617 337.565 210.08 337.565L207.359 335.493L202.284 337.565L200.984 337.565L200.984 343.574Z" fill="#2F2E41"/>
<path d="M236.895 221.051L240.319 232.836L236.285 282.747C236.285 282.747 238.362 285.867 236.895 285.867C235.428 285.867 233.546 286.559 234.732 288.423C235.917 290.287 231.865 296.977 231.865 296.977L226.135 332.516L218.833 332.407C218.833 332.407 215.12 330.331 217.204 328.232C219.287 326.132 220.754 326.132 218.798 324.168C216.841 322.204 216.841 322.796 216.841 321.272C216.841 319.749 214.881 301.132 219.53 293.991L218.129 264.875L214.83 293.434L208.037 331.534L201.003 331.475C201.003 331.475 197.754 328.332 197.76 326.004C197.766 323.677 199.767 323.484 198.278 322.107C196.788 320.731 196.788 299.585 201.19 287.832C201.19 287.832 203.68 281.264 201.184 279.014C198.688 276.764 201.181 274.189 201.181 274.189C201.181 274.189 205.134 272.754 201.177 268.621C197.221 264.488 201.156 235.256 201.156 235.256C201.156 235.256 196.831 223.456 201.211 218.816C205.592 214.176 236.895 221.051 236.895 221.051Z" fill="#2F2E41"/>
<path d="M175.915 241.355L182.024 226.534L186.837 229.219L183.93 244.295C184.221 245.25 184.241 246.268 183.988 247.234C183.734 248.2 183.217 249.075 182.495 249.762C181.773 250.45 180.875 250.921 179.9 251.124C178.926 251.326 177.915 251.252 176.98 250.909C176.046 250.566 175.225 249.969 174.61 249.183C173.996 248.398 173.611 247.456 173.501 246.463C173.39 245.47 173.557 244.466 173.984 243.564C174.41 242.662 175.079 241.897 175.915 241.355Z" fill="#FFB6B6"/>
<path d="M278.421 124.159L269.126 137.205L265.044 133.496L271.278 119.473C271.21 118.476 271.42 117.48 271.885 116.597C272.35 115.714 273.051 114.979 273.909 114.473C274.768 113.968 275.749 113.714 276.744 113.738C277.739 113.762 278.707 114.065 279.54 114.611C280.372 115.158 281.037 115.927 281.458 116.831C281.88 117.736 282.042 118.741 281.925 119.733C281.809 120.725 281.419 121.665 280.8 122.447C280.181 123.229 279.357 123.822 278.421 124.159Z" fill="#FFB6B6"/>
<path d="M237.818 222.259C243.846 231.647 213.542 243.56 201.914 238.777C199.878 237.94 192.874 235.174 197.662 231.338C202.449 227.503 197.107 226.964 196.98 224.467C196.896 222.798 198.183 219.136 196.84 219.293C195.497 219.45 193.925 217.142 196.85 216.149C199.775 215.155 196.882 214.25 196.907 213.307C197.187 203.017 205.051 186.65 205.051 186.65L190.881 223.014C190.881 223.014 190.985 229.306 189.178 227.383C187.371 225.461 187.503 231.683 187.503 231.683C187.503 231.683 184.816 233.566 186.361 234.613C187.906 235.661 184.697 238.882 184.697 238.882L177.211 238.345C177.211 238.345 177.328 232.762 178.606 231.527C179.885 230.292 179.257 228.349 179.257 228.349C179.257 228.349 182.585 225.392 180.354 222.99C177.484 219.901 187.947 167.734 191.557 168.251C192.068 165.756 193.255 163.453 194.989 161.594C196.722 159.735 198.934 158.393 201.379 157.717L209.465 155.482L210.901 149.763H222.287L224.27 153.521L232.926 157.442C234.557 155.133 235.775 152.699 242.452 151.91C242.452 151.91 260.443 135.477 259.565 134.194C258.686 132.91 261.475 129.906 261.475 129.906C261.475 129.906 263.857 129.124 262.513 128.706C261.169 128.288 263.709 127.322 263.709 127.322C263.709 127.322 266.062 126.701 264.952 125.884C263.843 125.067 268.656 124.53 268.656 124.53L274.9 129.645L273.638 131.794C273.638 131.794 274.408 134.719 273.403 133.651C272.399 132.583 272.21 135.683 272.21 135.683C272.21 135.683 271.697 139.077 268.656 140.099C265.614 141.122 263.308 150.836 263.308 150.836C256.135 160.199 247.67 167.503 237.639 172.311C241.549 176.816 237.818 222.259 237.818 222.259Z" fill="url(#paint0_linear_208_434)"/>
<path d="M215.746 146.416C221.974 146.416 227.023 141.347 227.023 135.095C227.023 128.842 221.974 123.773 215.746 123.773C209.518 123.773 204.469 128.842 204.469 135.095C204.469 141.347 209.518 146.416 215.746 146.416Z" fill="#FFB6B6"/>
<path d="M204.069 136.328C204.426 138.788 206.514 142.22 206.025 142.22C205.536 142.22 202.058 132.079 205.536 131.418C208.058 130.938 208.622 131.359 210.98 130.332L210.647 130.647C212.207 131.786 214.379 131.084 216.16 130.342C217.945 129.606 220.112 128.903 221.677 130.038C222.66 130.75 223.076 131.987 223.687 133.038C224.298 134.094 225.428 135.09 226.592 134.766C227.527 134.506 228.065 133.455 228.06 132.483C228.055 131.511 226.794 130.586 227.218 129.714C228.477 127.129 227.345 125.367 224.602 124.15C223.604 123.998 222.606 123.843 221.608 123.684C222.131 122.957 222.765 122.317 223.486 121.788C223.182 121.004 222.654 120.326 221.97 119.839C221.173 119.363 220.185 119.397 219.26 119.446C217.196 119.554 215.134 119.662 213.073 119.77C211.547 119.849 209.967 119.942 208.603 120.644C206.901 121.523 205.785 123.237 204.973 124.98C203.154 128.899 203.442 132.051 204.069 136.328Z" fill="#2F2E41"/>
<path d="M157.157 344.849L268.064 345C268.219 345 268.367 344.938 268.476 344.829C268.585 344.719 268.646 344.57 268.646 344.415C268.646 344.26 268.585 344.112 268.476 344.002C268.367 343.892 268.219 343.831 268.064 343.831L157.157 343.68C157.003 343.68 156.855 343.741 156.746 343.851C156.636 343.961 156.575 344.109 156.575 344.264C156.575 344.42 156.636 344.568 156.746 344.678C156.855 344.788 157.003 344.849 157.157 344.849Z" fill="#CACACA"/>
<path d="M117.045 293.884C117.25 292.473 115.778 291.09 113.758 290.795C111.738 290.5 109.934 291.405 109.73 292.815C109.525 294.226 110.997 295.609 113.017 295.904C115.037 296.199 116.841 295.295 117.045 293.884Z" fill="#E6E6E6"/>
<path d="M141.096 291.528C141.3 290.117 139.828 288.734 137.808 288.439C135.788 288.144 133.985 289.049 133.78 290.46C133.576 291.87 135.048 293.253 137.068 293.548C139.088 293.843 140.891 292.939 141.096 291.528Z" fill="#3F3D56"/>
<path d="M110.459 274.337C110.664 272.926 109.192 271.543 107.172 271.248C105.152 270.953 103.349 271.858 103.144 273.268C102.94 274.679 104.412 276.062 106.432 276.357C108.452 276.652 110.255 275.748 110.459 274.337Z" fill="#FF6584"/>
<path d="M100.009 266.33C100.019 265.035 99.2989 263.98 98.4015 263.973C97.5041 263.966 96.7686 265.01 96.7589 266.305C96.7491 267.6 97.4687 268.656 98.3662 268.663C99.2636 268.67 99.999 267.625 100.009 266.33Z" fill="#E6E6E6"/>
<path d="M96.4648 251.417C96.4746 250.121 95.755 249.066 94.8575 249.059C93.9601 249.052 93.2247 250.097 93.2149 251.392C93.2052 252.687 93.9248 253.742 94.8222 253.749C95.7196 253.756 96.455 252.712 96.4648 251.417Z" fill="#3F3D56"/>
<path d="M124.024 277.663C124.034 276.368 123.314 275.313 122.417 275.306C121.519 275.299 120.784 276.343 120.774 277.639C120.764 278.934 121.484 279.989 122.381 279.996C123.279 280.003 124.014 278.958 124.024 277.663Z" fill="#E6E6E6"/>
<path d="M112.402 283.489C112.412 282.194 111.692 281.138 110.795 281.132C109.897 281.125 109.162 282.169 109.152 283.464C109.142 284.759 109.862 285.815 110.759 285.822C111.657 285.828 112.392 284.784 112.402 283.489Z" fill="#FF6584"/>
<path d="M128.58 294.256C128.59 292.961 127.871 291.906 126.973 291.899C126.076 291.892 125.34 292.936 125.331 294.232C125.321 295.527 126.04 296.582 126.938 296.589C127.835 296.596 128.571 295.551 128.58 294.256Z" fill="#3F3D56"/>
<path d="M301.931 218.265C302.135 216.854 300.663 215.471 298.643 215.176C296.623 214.881 294.82 215.785 294.615 217.196C294.411 218.607 295.883 219.99 297.903 220.285C299.923 220.58 301.726 219.675 301.931 218.265Z" fill="#E6E6E6"/>
<path d="M325.981 215.909C326.186 214.498 324.714 213.115 322.694 212.82C320.674 212.525 318.87 213.429 318.666 214.84C318.461 216.251 319.933 217.634 321.953 217.929C323.973 218.224 325.777 217.319 325.981 215.909Z" fill="#3F3D56"/>
<path d="M295.344 198.717C295.549 197.307 294.077 195.924 292.057 195.629C290.037 195.334 288.234 196.238 288.029 197.649C287.825 199.06 289.297 200.443 291.317 200.738C293.337 201.033 295.14 200.128 295.344 198.717Z" fill="#FF6584"/>
<path d="M284.894 190.711C284.904 189.416 284.184 188.36 283.287 188.353C282.39 188.346 281.654 189.391 281.644 190.686C281.635 191.981 282.354 193.037 283.252 193.043C284.149 193.05 284.885 192.006 284.894 190.711Z" fill="#E6E6E6"/>
<path d="M281.35 175.797C281.36 174.502 280.64 173.447 279.743 173.44C278.846 173.433 278.11 174.477 278.1 175.773C278.091 177.068 278.81 178.123 279.708 178.13C280.605 178.137 281.34 177.092 281.35 175.797Z" fill="#3F3D56"/>
<path d="M308.909 202.044C308.919 200.749 308.2 199.693 307.302 199.687C306.405 199.68 305.669 200.724 305.66 202.019C305.65 203.314 306.369 204.37 307.267 204.377C308.164 204.383 308.9 203.339 308.909 202.044Z" fill="#E6E6E6"/>
<path d="M297.287 207.87C297.297 206.574 296.577 205.519 295.68 205.512C294.783 205.505 294.047 206.55 294.037 207.845C294.028 209.14 294.747 210.195 295.645 210.202C296.542 210.209 297.277 209.165 297.287 207.87Z" fill="#FF6584"/>
<path d="M313.466 218.637C313.476 217.342 312.756 216.286 311.859 216.279C310.961 216.273 310.226 217.317 310.216 218.612C310.206 219.907 310.926 220.963 311.823 220.969C312.721 220.976 313.456 219.932 313.466 218.637Z" fill="#3F3D56"/>
<path d="M212.423 78.3198C212.627 76.909 211.155 75.5262 209.135 75.2312C207.115 74.9361 205.312 75.8405 205.107 77.2513C204.903 78.662 206.375 80.0449 208.395 80.3399C210.415 80.635 212.218 79.7305 212.423 78.3198Z" fill="white"/>
<path d="M236.473 75.9637C236.678 74.553 235.206 73.1702 233.186 72.8751C231.166 72.58 229.362 73.4845 229.158 74.8952C228.953 76.306 230.425 77.6888 232.445 77.9838C234.465 78.2789 236.269 77.3745 236.473 75.9637Z" fill="#3F3D56"/>
<path d="M205.837 58.7725C206.041 57.3618 204.569 55.979 202.549 55.6839C200.529 55.3889 198.726 56.2933 198.522 57.704C198.317 59.1148 199.789 60.4976 201.809 60.7927C203.829 61.0877 205.632 60.1833 205.837 58.7725Z" fill="#FF6584"/>
<path d="M195.386 50.7657C195.396 49.4706 194.676 48.4152 193.779 48.4083C192.881 48.4015 192.146 49.4459 192.136 50.741C192.127 52.0362 192.846 53.0916 193.744 53.0984C194.641 53.1052 195.376 52.0608 195.386 50.7657Z" fill="#E6E6E6"/>
<path d="M191.842 35.8523C191.852 34.5571 191.132 33.5017 190.235 33.4949C189.337 33.4881 188.602 34.5325 188.592 35.8276C188.583 37.1227 189.302 38.1781 190.2 38.1849C191.097 38.1918 191.832 37.1474 191.842 35.8523Z" fill="#3F3D56"/>
<path d="M219.401 62.099C219.411 60.8038 218.692 59.7484 217.794 59.7416C216.897 59.7348 216.161 60.7792 216.152 62.0743C216.142 63.3694 216.861 64.4248 217.759 64.4316C218.656 64.4385 219.392 63.3941 219.401 62.099Z" fill="#E6E6E6"/>
<path d="M207.779 67.9246C207.789 66.6295 207.069 65.5741 206.172 65.5673C205.275 65.5605 204.539 66.6048 204.529 67.9C204.52 69.1951 205.239 70.2505 206.137 70.2573C207.034 70.2641 207.77 69.2198 207.779 67.9246Z" fill="#FF6584"/>
<path d="M223.958 78.6919C223.968 77.3967 223.248 76.3413 222.351 76.3345C221.453 76.3277 220.718 77.3721 220.708 78.6672C220.698 79.9623 221.418 81.0177 222.315 81.0245C223.213 81.0314 223.948 79.987 223.958 78.6919Z" fill="#3F3D56"/>
</g>
<defs>
<linearGradient id="paint0_linear_208_434" x1="226.055" y1="124.53" x2="226.055" y2="239.87" gradientUnits="userSpaceOnUse">
<stop stop-color="#FDB218"/>
<stop offset="1" stop-color="#1C1654"/>
</linearGradient>
<clipPath id="clip0_208_434">
<rect width="345" height="345" fill="white"/>
</clipPath>
</defs>
</svg>
